<svg xmlns="http://www.w3.org/2000/svg" width="38" height="92" version="1.1">
  <path
    d="M 2.4090694,0.19228743 C 1.7108869,0.20885034 1.101234,0.52574709 0.69754598,1.12143 0.07705574,2.0813436 -0.03440264,3.7863371 0.49290665,4.1910094 1.1405088,4.6551573 1.5756716,4.2177138 1.4168819,3.285121 1.3563929,2.8329772 1.4613822,2.1344693 1.661312,1.7611846 1.9795819,1.1834827 2.2147859,1.1195753 3.0452071,1.3420872 4.2908655,1.6758511 4.7985797,2.8653966 4.1913901,4.0468326 3.8533108,4.6646321 3.8954113,5.0844173 4.2916433,5.9443899 4.5728928,6.555588 5.0509155,7.1104324 5.3644441,7.1944429 6.1355457,7.4010587 6.2244325,6.6622865 5.5246413,5.8844459 5.0173213,5.3034844 4.9883389,5.0051217 5.3448067,3.6747623 5.8057188,1.9546108 5.4907879,1.3338772 3.7366375,0.49149413 3.2789506,0.28030901 2.8279789,0.18235232 2.4090694,0.19228743 Z M 17.88771,6.690081 c -0.72939,0.00238 -1.278009,0.3206723 -1.771468,0.9720341 -0.657939,0.8597106 -0.693012,1.0522744 -0.350882,1.5172214 0.38599,0.5175779 0.46504,0.535223 1.158068,0.070279 1.052711,-0.6930337 1.763189,-0.605364 2.850989,0.3245273 1.18429,0.9825272 1.877065,2.5352642 1.631426,3.6406052 -0.236861,1.052706 0.438917,1.675736 1.298628,1.219563 1.26325,-0.684258 7.570477,-0.114263 10.404017,0.938445 l 1.605587,0.614431 -0.193271,2.22829 c -0.32458,3.482702 -1.254561,4.999976 -5.158343,8.482687 -2.272088,2.017678 -3.359753,3.193539 -3.552753,3.877799 -0.175451,0.587769 -0.447381,0.903203 -0.710552,0.833022 -0.23686,-0.0526 -1.087924,-0.2804 -1.912543,-0.49971 -1.605381,-0.4474 -3.517405,-0.280731 -4.464844,0.359669 -0.315809,0.228079 -0.903909,0.412377 -1.33377,0.412377 -1.087789,0.01749 -1.789663,0.693052 -4.052982,4.017843 -1.122879,1.64047 -3.6226407,4.710734 -5.5350622,6.83369 -2.1405003,2.377361 -3.491775,4.13208 -3.491775,4.51807 -0.017489,1.21938 4.9039038,2.789494 8.7813752,2.789494 2.07033,0 2.710547,0.535086 2.070158,1.789555 -0.59654,1.122891 -3.482525,3.456484 -4.605404,3.710884 -1.2018401,0.263181 -1.7367403,1.192792 -0.9296579,1.622642 1.4474689,0.771988 3.7104239,-0.192897 5.9386549,-2.482538 0.570219,-0.587759 1.149463,-0.982247 1.272272,-0.894516 0.14037,0.079 0.245465,0.613685 0.245465,1.183907 0,0.570209 0.201877,1.430022 0.447516,1.894972 0.307031,0.605301 0.499912,2.386081 0.640271,6.158283 l 0.202057,5.316468 -1.360125,3.464907 c -0.74566,1.894869 -1.622587,3.982553 -1.947167,4.605404 -0.956212,1.92996 -1.535538,5.114858 -1.33377,7.615039 0.140362,1.79837 0.07025,2.386168 -0.324527,2.938838 -0.500041,0.719349 -0.657805,2.219306 -0.263033,2.447396 0.122809,0.0789 1.298416,-0.05247 2.605524,-0.280604 3.21075,-0.552659 5.868612,-0.03531 8.579324,1.675349 1.035158,0.6404 2.157944,1.201994 2.482535,1.201994 0.34213,0 0.947515,-0.544271 1.517737,-1.360122 0.53512,-0.736902 0.965314,-1.447109 0.965314,-1.569932 0,-0.412308 -3.859988,-1.588084 -6.605797,-2.000392 -1.51766,-0.236861 -3.746164,-0.429948 -4.939233,-0.429948 -1.96505,0 -2.184178,-0.07013 -2.412257,-0.675413 -0.605311,-1.614149 0.640533,-5.561576 4.105693,-12.965615 2.087869,-4.46523 2.999817,-7.483012 2.999817,-9.86038 0,-0.622851 0.08798,-1.745665 0.19327,-2.500106 0.157909,-1.19307 0.280437,-1.394746 0.894519,-1.394746 0.780759,0 0.728305,-0.157882 1.588016,4.754748 0.763209,4.333628 0.745942,4.947647 -0.166399,8.333859 -0.40354,1.535189 -0.886018,4.114175 -1.087787,5.719545 -0.464952,3.982741 -0.333753,4.193455 2.640148,4.851384 2.50018,0.561451 3.807341,1.131425 6.228561,2.754355 1.122889,0.72812 1.754532,0.965115 2.201931,0.824754 0.973752,-0.307039 2.675552,-1.912663 2.491322,-2.360062 -0.228081,-0.587759 -2.508647,-1.499865 -5.973797,-2.377115 -3.57043,-0.912349 -4.605837,-1.280681 -4.912878,-1.745631 -0.421079,-0.68426 -0.227891,-4.097102 0.500229,-8.606192 0.754441,-4.59682 1.377344,-12.465732 1.131713,-14.167612 -0.0965,-0.62285 0.157496,-1.552728 0.797885,-2.903698 1.87733,-3.94765 1.728568,-9.272641 -0.464571,-16.431038 l -0.78083,-2.570385 1.017508,-0.91209 c 2.938798,-2.622989 6.439019,-8.255098 7.99176,-12.843142 1.052709,-3.105486 1.412545,-6.000615 0.842325,-6.693649 C 36.942229,13.907793 33.398132,13.021727 28.845182,12.469057 23.932553,11.872522 23.06415,11.469147 21.97635,9.3023254 21.406131,8.1618945 20.940935,7.697138 19.975955,7.2497382 19.131598,6.8774536 18.455016,6.6882368 17.88771,6.690081 Z M 7.2682058,7.7690862 C 7.0855824,7.7803839 6.9798788,7.9098154 6.907502,8.1799126 6.7235928,8.8662815 7.0843151,9.317195 7.7472445,9.2496151 8.4548065,9.1849113 8.4032683,8.1903505 7.6893669,7.8719218 7.5150567,7.7979707 7.3777777,7.7623128 7.2682058,7.7690862 Z m 6.5344832,2.5321448 c -0.125815,0.0028 -0.252619,0.0087 -0.379823,0.0186 -1.51765,0.114043 -1.868389,0.254741 -2.438609,0.965316 -1.4650106,1.824691 -1.7721469,5.202145 -0.789617,8.395354 0.570219,1.824691 3.33339,5.052629 6.070431,7.035228 2.622989,1.929961 6.158298,3.070633 7.26364,2.360062 0.72812,-0.482488 1.333648,-2.587939 1.245918,-4.395078 l -0.105421,-1.789557 1.947685,0.09664 c 2.36859,0.105269 2.921101,-0.184455 2.438612,-1.254705 -0.333359,-0.710575 -0.499861,-0.763259 -2.421041,-0.763259 h -2.070158 l -1.10536,-2.114085 c -0.61408,-1.157975 -1.86009,-2.94749 -2.772439,-3.947562 -0.929892,-1.017614 -1.947609,-2.193239 -2.263429,-2.623095 -1.019802,-1.282985 -2.733177,-2.026073 -4.620389,-1.983859 z m 3.342949,26.840738 c 0.163661,-0.0045 0.274439,0.124134 0.435631,0.337965 2.17559,2.912489 2.842049,8.807707 1.271757,11.342976 -0.34213,0.55267 -0.684294,1.017508 -0.754475,1.017508 -0.0877,0 -0.517419,-0.289351 -0.982369,-0.622699 -0.693031,-0.517581 -1.535086,-0.684496 -4.298444,-0.895038 -3.5353308,-0.271949 -5.5531517,-0.824757 -5.5531517,-1.552877 0,-0.377219 3.9127347,-4.342262" />
</svg>
