<svg xmlns="http://www.w3.org/2000/svg" viewBox="0 0 626.29493 626.29493" version="1.1">
  <path fill="#556ae7" d="m 313.14844,0 c -15.02461,0.102851 -30.02233,1.2869 -44.87695,3.542969 -1.76299,11.152134 -3.93395,26.484858 -5.2793,34.9375 10.10283,9.012325 21.15038,17.07684 29.88672,27.689453 16.46578,-4.137365 32.27072,-8.345687 47.50781,-11.886718 12.43312,18.847841 20.67009,37.315354 29.2168,60.666016 -12.5948,9.40447 -25.34524,18.86143 -38.0293,28.37109 1.43835,13.87801 1.97602,27.82284 2.55469,41.76172 13.57815,7.42105 27.24935,15.94422 41.39453,24.03516 -3.875,22.66916 -11.55626,42.44537 -23.47656,63.11328 -16.77466,-2.09199 -28.92662,-3.5297 -44.79102,-5.76172 -7.30656,8.46789 -23.80243,25.15638 -28.70117,29.47461 3.162,16.07211 7.98011,30.18777 11.25195,46.19727 -16.95058,12.64876 -39.18422,21.1194 -60.33593,30.60156 -10.85077,-11.77614 -18.50333,-22.5826 -30.4043,-38.42773 -12.89059,2.51427 -26.64129,2.48452 -39.9668,2.66601 -6.09404,11.46566 -16.39286,29.93456 -22.74218,41.26563 -12.95622,-3.17386 -49.10544,-15.86041 -64.437508,-25.23047 0.888756,-2.66615 5.902343,-40.88305 5.902343,-44.78711 C 67.308792,301.10777 50.526024,285.83233 46.34375,281.49414 31.795705,285.86929 15.72408,289.4965 0.96875,293.78907 0.446181,300.22999 0.12311,306.68557 0,313.14649 c -6.1299799e-4,172.94735 140.20108,313.14905 313.14844,313.14843 29.59431,-0.0577 59.03102,-4.31031 87.43164,-12.63085 -16.7769,-6.89972 -20.77897,-9.15578 -35.20898,-18.29102 -10.76884,6.24873 -26.23272,14.73058 -42.21485,23.47656 -14.42057,-13.3508 -31.33935,-31.72989 -43.59961,-51.6875 9.64473,-12.23202 19.16824,-24.53381 28.58399,-36.94336 -7.63562,-17.78834 -8.33731,-22.1687 -11.62891,-39.09179 -15.4021,-3.73323 -31.07226,-7.21793 -47.76758,-12.57227 0.47762,-24.05548 -0.13271,-45.84785 6.43555,-67.26562 13.10663,-3.63372 30.26263,-5.09095 48.05664,-6.92969 4.87131,-12.39107 9.99748,-23.33713 16.58594,-35.64063 -9.56362,-16.10421 -18.96672,-32.20227 -22.98438,-41.92187 12.85657,-15.51677 31.3946,-32.22002 51.00977,-43.81446 14.79181,10.43858 24.68562,17.90448 38.99805,28.99805 15.29261,-6.42028 21.06534,-8.34946 36.28515,-11.80664 6.10054,-20.99246 10.80177,-32.67915 18.33985,-47.78711 10.35295,-1.52465 49.61648,1.19751 63.16601,6.06445 0.52891,3.01459 5.95562,44.1717 6.13477,46.73829 12.05276,5.16345 23.63617,10.65279 36.14062,18.78515 14.68494,-7.38219 27.50939,-16.77921 42.89649,-24.01758 8.63687,8.59048 25.1359,24.77324 35.33789,36.13477 0.66334,-7.63181 1.04641,-15.2854 1.14844,-22.94531 C 626.29447,140.20065 486.09428,4.58e-4 313.14844,0 Z M 170.7168,62.648438 A 111.11678,111.11678 0 0 0 59.599609,173.76563 111.11678,111.11678 0 0 0 170.7168,284.88281 111.11678,111.11678 0 0 0 281.83399,173.76563 111.11678,111.11678 0 0 0 170.7168,62.648438 Z M 456.29297,348.08985 A 111.11678,111.11678 0 0 0 345.17774,459.20508 111.11678,111.11678 0 0 0 456.29297,570.32227 111.11678,111.11678 0 0 0 567.41016,459.20508 111.11678,111.11678 0 0 0 456.29297,348.08985 Z m 164.73633,20.81054 c -7.11997,8.95609 -9.4428,11.89003 -17.11719,20.4043 2.02484,3.96552 4.40134,9.19956 7.78516,18.05859 3.9186,-12.61136 7.0355,-25.45798 9.33203,-38.46289 z" />
</svg>
