<svg xmlns="http://www.w3.org/2000/svg" xmlns:xlink="http://www.w3.org/1999/xlink" viewBox="0 0 240 240" width="240" height="240" version="1.1">
  <defs>
    <filter id="effect">
      <feGaussianBlur in="SourceAlpha" stdDeviation="4" />
      <feOffset result="result" dx="5" dy="5" />
      <feComposite in="SourceGraphic" in2="result" operator="xor" />
    </filter>
    <g id="logo">
      <path d="m 119.99967,20.000609 c -32.384791,1e-6 -61.222726,15.475231 -79.509872,39.418265 a 29,29 0 0 1 11.510408,-2.41949 29,29 0 0 1 9.224242,1.534271 C 76.47687,43.947605 97.169552,35.00021 119.99967,35.000209 c 15.80515,0 30.58303,4.292655 43.24387,11.770857 a 30.999998,30.999998 0 0 1 14.75673,-3.771345 30.999998,30.999998 0 0 1 6.60683,0.731738 C 167.1676,28.935784 144.60743,20.000608 119.99967,20.000609 Z m 88.98062,54.39306 a 30.999998,30.999998 0 0 1 -7.83208,20.180162 c 2.50253,8.025009 3.85144,16.564819 3.85144,25.426869 0,23.68796 -9.63353,45.07331 -25.2026,60.4697 a 37,37 0 0 1 0.20309,3.52898 37,37 0 0 1 -5.99601,20.13055 c 27.64869,-17.80996 45.99564,-48.86708 45.99564,-84.12923 0,-16.4181 -3.97789,-31.92448 -11.01948,-45.607031 z M 23.805545,92.636481 c -2.478376,8.699919 -3.805969,17.880119 -3.805969,27.364219 -1e-6,55.13964 44.860451,99.99958 100.000094,99.99958 4.03187,0 8.00816,-0.24178 11.91659,-0.70796 a 37,37 0 0 1 -19.56987,-14.6296 C 68.91547,200.8082 34.999693,164.45385 34.999694,120.0007 c 0,-3.41592 0.201711,-6.78371 0.591178,-10.09292 A 29,29 0 0 1 23.805545,92.636481 Z" />
      <path d="m 127.05808,117.46335 -14.11522,5.07227 22.99998,64 14.11521,-5.07227 z" />
      <path d="m 55.355024,79.291473 -6.708979,13.416015 67.999935,34.000002 6.70898,-13.41602 z" />
      <path d="m 173.33928,68.123504 -57.99994,46.000006 9.3203,11.75195 57.99994,-46.000003 z" />
      <circle cx="178" cy="74" r="26" />
      <circle cx="143" cy="184" r="32" />
      <circle cx="52" cy="86" r="24" />
      <circle cx="120" cy="120" r="21" />
    </g>
  </defs>
  <use xlink:href="#logo" fill="#ffffff" />
  <use xlink:href="#logo" fill="#800000" filter="url(#effect)" />
</svg>
