<svg xmlns="http://www.w3.org/2000/svg" version="1.1" viewBox="0 0 1600 1600" width="2000" height="2000" opacity="0.3">
  <g stroke="white" stroke-width="2">
    <path d="m 1322.4973,565.38903 -24.4576,-77.9199" />
    <path d="m 350.1538,501.91228 84.0358,14.92081" />
    <path d="m 882.89901,1119.5351 -92.77613,-73.3849" />
    <path d="m 828.5563,240.00112 108.4976,-10.0494" />
    <path d="M 995.3799,647.54143 872.9157,562.87483" />
    <path d="m 828.5563,240.00112 24.773,-79.6466" />
    <path d="m 1441.7646,1055.0059 -44.529,-73.79837" />
    <path d="m 1167.3657,1473.9277 -34.7685,77.4128" />
    <path d="M 198.92894,1430.7617 167.93489,1316.6129" />
    <path d="M 600.4272,635.34073 584.50383,757.37637" />
    <path d="m 700.1254,1417.9105 168.8756,18.0717" />
    <path d="M 145.3185,216.02662 44.7768,194.86002" />
    <path d="m 1308.756,185.78852 38.3231,128.88961" />
    <path d="m 587.9479,251.10592 184.0805,10.7943" />
    <path d="m 587.4944,1211.8894 -1.8269,-130.7753" />
    <path d="M 167.93489,1316.6129 101.4967,1251.0468" />
    <path d="m 1090.7817,251.25512 132.5516,3.3251" />
    <path d="m 1563.8899,1532.5445 -20.9896,-67.6478" />
    <path d="M 790.12288,1046.1502 826.37312,943.52883" />
    <path d="M 606.21649,985.80934 706.1753,953.73701" />
    <path d="M 22.511,768.70376 180.0669,672.10538" />
  </g>
  <g stroke="white" stroke-width="2">
    <path d="m 1043.3369,410.94363 5.3048,-86.0284" />
    <path d="M 794.03873,472.06019 779.09818,582.5466" />
    <path d="M 584.50383,757.37637 518.4116,907.78972" />
    <path d="M 167.93489,1316.6129 314.5392,1335.164" />
    <path d="m 29.8963,566.53769 117.5466,12.97045" />
    <path d="m 1278.18,334.12973 -38.0841,75.8367" />
    <path d="m 350.0287,1366.2988 92.1934,45.7013" />
    <path d="m 1003.6913,1292.9969 44.1743,70.2988" />
    <path d="m 937.0539,229.95172 100.0714,-59.227" />
    <path d="m 1091.8304,682.57783 -96.4505,-35.0364" />
    <path d="M 192.60596,1138.1016 294.9155,1082.8304" />
    <path d="m 1434.622,37.62182 -1.1339,96.7619" />
    <path d="m 1397.2356,981.20753 -7.1918,-84.5569" />
    <path d="m 287.3868,1463.8537 92.6306,58.7273" />
    <path d="m 1400.2808,1240.2616 -10.9837,-53.9764" />
    <path d="m 1126.6488,888.61423 173.4781,-27.7282" />
    <path d="m 1116.2503,490.08003 123.8456,-80.1136" />
    <path d="m 524.5741,1451.0671 -36.4692,77.0771" />
    <path d="M 937.0539,229.95172 850.428,346.37143" />
    <path d="m 772.0284,261.90022 78.3996,84.47121" />
    <path d="M 584.50383,757.37637 478.8461,685.00286" />
  </g>
  <g stroke="white" stroke-width="2">
    <path d="M 82.9536,449.51295 7.5472357,443.46743" />
    <path d="m 198.92894,1430.7617 -148.92258,5.2917" />
    <path d="m 1316.0986,1156.5396 73.1985,29.7456" />
    <path d="m 699.50143,636.42933 -99.07423,-1.0886" />
    <path d="m 826.37312,943.52883 80.524,95.44927" />
    <path d="m 1401.6892,561.85943 -79.1919,3.5296" />
    <path d="m 1323.4275,1360.0449 -49.5486,-61.5448" />
    <path d="m 393.8023,678.8045 85.0438,6.19836" />
    <path d="m 1047.8656,1363.2957 81.4181,-97.4362" />
    <path d="m 1323.4275,1360.0449 88.9414,-11.4938" />
    <path d="M 210.02464,886.39528 409.0448,869.32012" />
    <path d="m 127.1612,314.19713 68.5869,61.62167" />
    <path d="m 1240.0959,409.96643 57.9438,77.5027" />
    <path d="m 409.0448,869.32012 109.3668,38.4696" />
    <path d="m 1043.3369,410.94363 119.4875,-75.6994" />
    <path d="m 1164.2698,1387.7915 -111.55,86.9727" />
    <path d="m 882.89901,1119.5351 81.45322,72.242" />
    <path d="m 779.09818,582.5466 -79.59675,53.88273" />
    <path d="m 1518.309,1324.6828 24.5913,140.2139" />
    <path d="M 210.02464,886.39528 195.94431,801.2216" />
    <path d="M 584.50383,757.37637 413.65859,783.07875" />
    <path d="m 1069.6451,1163.7387 42.4256,-41.054" />
    <path d="m 997.23828,1435.7593 50.62732,-72.4636" />
    <path d="m 872.9157,562.87483 52.6398,-73.7351" />
    <path d="m 379.258,328.42118 -1.1339,96.76188" />
    <path d="m 1542.9003,1464.8967 -89.5037,-22.147" />
    <path d="m 1594.3894,1291.4401 -84.2622,-94.9873" />
    <path d="m 1394.7526,422.90323 80.1862,-120.94521" />
    <path d="m 758.1725,1280.9302 119.11996,-34.5889" />
    <path d="m 1003.6913,1292.9969 -135.006,45.1448" />
    <path d="m 1470.5298,256.47012 -65.0119,-45.3572" />
    <path d="m 409.5321,198.39472 -122.0946,8.5605" />
    <path d="M 706.1753,953.73701 671.43836,862.45375" />
    <path d="M 195.94431,801.2216 32.03558,912.39822" />
    <path d="m 1132.5972,1551.3405 53.6945,29.9629" />
    <path d="m 1441.7646,1055.0059 46.262,-73.43807" />
    <path d="m 86.7321,94.69632 17.009,-81.2649" />
    <path d="m 1012.3325,36.73572 24.7928,133.989" />
    <path d="m 1129.2837,1265.8595 -59.6386,-102.1208" />
    <path d="m 1125.0098,791.39422 79.2967,-80.70719" />
    <path d="M 455.6092,291.37942 379.258,328.42118" />
    <path d="m 387.1936,22.34422 81.6487,1.7783" />
    <path d="M 794.03873,472.06019 882.234,423.06343" />
    <path d="m 105.25298,1534.4344 -55.24662,-98.381" />
    <path d="m 1278.18,334.12973 68.8991,-19.4516" />
    <path d="m 1347.0791,314.67813 47.6735,108.2251" />
    <path d="m 1484.7366,736.67433 65.0219,-56.579" />
    <path d="m 1308.756,185.78852 40.0654,-100.5416" />
    <path d="m 300.3974,1237.3532 -70.4121,12.9455" />
    <path d="m 294.9155,1082.8304 97.8339,-3.3783" />
    <path d="m 277.8266,1002.9703 17.0889,79.8601" />
    <path d="M 833.96812,807.26922 671.43836,862.45375" />
    <path d="M 111.66517,1065.2855 61.8957,1017.0976" />
    <path d="m 964.18642,840.63143 47.37398,112.48638" />
    <path d="m 882.89901,1119.5351 113.92903,-41.2847" />
    <path d="m 1151.1399,163.86592 72.9494,-72.5714" />
    <path d="m 1493.129,1126.9076 101.6928,14.3243" />
    <path d="m 499.0437,136.41682 88.9042,114.6891" />
    <path d="m 964.18642,840.63143 29.47247,-90.00907" />
    <path d="m 1348.6773,1033.815 -97.227,-67.32257" />
    <path d="m 127.28558,965.31492 -95.25,-52.9167" />
    <path d="m 1008.7132,516.27623 96.8942,64.329" />
    <path d="m 1474.9388,301.95802 -4.409,-45.4879" />
    <path d="m 1043.3369,410.94363 -117.7814,78.1961" />
    <path d="M 187.6788,478.24702 147.4429,579.50814" />
    <path d="m 1502.5458,406.98593 -20.4181,80.8727" />
    <path d="M 833.96812,807.26922 891.0585,716.33313" />
    <path d="m 1090.7817,251.25512 -53.6564,-80.5304" />
    <path d="m 534.1882,1340.8036 -91.9661,71.1965" />
    <path d="m 1241.685,803.54173 104.6953,-95.9295" />
    <path d="m 1162.8244,335.24423 60.5089,-80.66401" />
    <path d="m 1333.7024,1554.8451 -10.2749,-194.8002" />
    <path d="m 58.52932,1352.2691 109.40557,-35.6562" />
    <path d="M 465.9428,1248.6036 476.157,1097.1737" />
    <path d="m 1400.2808,1240.2616 118.0282,84.4212" />
    <path d="m 1298.0397,487.46913 -97.0932,12.4818" />
    <path d="m 704.8973,402.1137 89.14143,69.94649" />
    <path d="m 869.001,1435.9822 53.4539,132.5657" />
    <path d="M 707.7724,97.10262 862.4956,37.45632" />
    <path d="m 882.234,423.06343 43.3215,66.0763" />
    <path d="m 514.0669,593.4093 86.3603,41.93143" />
    <path d="M 264.14888,748.11657 393.8023,678.8045" />
    <path d="m 180.0669,672.10538 -32.624,-92.59724" />
    <path d="m 1116.2503,490.08003 84.6962,9.8709" />
    <path d="M 891.0585,716.33313 872.9157,562.87483" />
    <path d="m 1441.7646,1055.0059 -52.4675,131.2793" />
    <path d="M 264.14888,748.11657 180.0669,672.10538" />
    <path d="m 869.001,1435.9822 128.23728,-0.2229" />
    <path d="M 248.128,67.86002 103.7411,13.43142" />
    <path d="m 891.0585,716.33313 104.3214,-68.7917" />
    <path d="M 584.50383,757.37637 751.35171,740.12991" />
    <path d="m 1488.0266,981.56783 27.9703,-76.7291" />
    <path d="M 32.03558,912.39822 22.511,768.70376" />
    <path d="m 1502.5458,406.98593 -107.7932,15.9173" />
    <path d="m 476.157,1097.1737 -130.7732,68.2225" />
    <path d="m 1167.3657,1473.9277 166.3367,80.9174" />
    <path d="m 534.1882,1340.8036 -9.6141,110.2635" />
    <path d="m 964.35223,1191.7771 105.29287,-28.0384" />
    <path d="m 198.65038,999.10372 -71.3648,-33.7888" />
    <path d="m 1129.2837,1265.8595 34.9861,121.932" />
    <path d="m 455.6092,291.37942 66.5238,26.45846" />
    <path d="m 373.2495,972.99272 19.4999,106.45938" />
    <path d="m 279.9117,577.50586 70.2421,-75.59358" />
    <path d="m 1572.16,359.24943 7.2269,-112.60671" />
    <path d="m 1347.0791,314.67813 123.4507,-58.20801" />
    <path d="M 1125.0098,791.39422 964.18642,840.63143" />
    <path d="m 1011.5604,953.11781 65.3315,48.75129" />
    <path d="M 350.0287,1366.2988 314.5392,1335.164" />
    <path d="M 279.9117,577.50586 253.3919,476.58787" />
    <path d="m 1408.4928,646.52603 -62.1125,61.0862" />
    <path d="M 1011.5604,953.11781 906.89712,1038.9781" />
    <path d="m 1515.9969,904.83873 -89.3622,-96.81355" />
    <path d="M 393.8023,678.8045 514.0669,593.4093" />
    <path d="m 618.3382,1302.2383 -84.15,38.5653" />
    <path d="m 1091.8304,682.57783 13.777,-101.9726" />
    <path d="m 616.8355,125.90452 -117.7918,10.5123" />
    <path d="M 522.133,317.83788 476.02,395.70091" />
    <path d="m 1164.2698,1387.7915 3.0959,86.1362" />
    <path d="m 922.4549,1568.5479 79.6239,-15.8999" />
    <path d="m 127.1612,314.19713 85.248,-46.38771" />
    <path d="m 383.8378,1281.358 -83.4404,-44.0048" />
    <path d="m 1204.3065,710.68703 142.0738,-3.0748" />
    <path d="m 1129.2837,1265.8595 144.5952,32.6406" />
    <path d="M 1426.6347,808.02518 1346.3803,707.61223" />
    <path d="m 877.29246,1246.3413 87.05977,-54.5642" />
    <path d="m 1323.4275,1360.0449 -159.1577,27.7466" />
    <path d="m 1048.6417,324.91523 42.14,-73.66011" />
    <path d="M 409.0448,869.32012 195.94431,801.2216" />
    <path d="m 1105.6074,580.60523 95.3391,-80.6543" />
    <path d="m 1563.8899,1532.5445 -141.3631,-4.9137" />
    <path d="M 779.09818,582.5466 872.9157,562.87483" />
    <path d="m 1426.6347,808.02518 -126.5078,52.86085" />
    <path d="m 268.5387,1556.357 18.8481,-92.5033" />
    <path d="m 314.5392,1335.164 69.2986,-53.806" />
    <path d="m 248.128,67.86002 117.0537,30.6373" />
    <path d="m 380.0174,1522.581 108.0875,5.5632" />
    <path d="m 127.28558,965.31492 82.73906,-78.91964" />
    <path d="m 1518.309,1324.6828 76.0804,-33.2427" />
    <path d="m 700.1254,1417.9105 58.0471,-136.9803" />
    <path d="m 1408.4928,646.52603 76.2438,90.1483" />
    <path d="m 826.37312,943.52883 137.8133,-102.8974" />
    <path d="M 671.43836,862.45375 584.50383,757.37637" />
    <path d="m 1008.7132,516.27623 -13.3333,131.2652" />
    <path d="m 1246.3415,1111.5148 -117.0578,154.3447" />
    <path d="m 1251.4503,966.49243 48.6766,-105.6064" />
    <path d="m 1287.5893,25.90462 61.2321,59.3423" />
    <path d="m 1397.2356,981.20753 -48.5583,52.60747" />
    <path d="m 657.7632,1225.5917 -70.2688,-13.7023" />
    <path d="M 706.1753,953.73701 826.37312,943.52883" />
    <path d="m 524.5741,1451.0671 36.2434,142.9768" />
    <path d="M 790.12288,1046.1502 681.2266,1106.4581" />
    <path d="M 264.14888,748.11657 195.94431,801.2216" />
    <path d="m 1091.8304,682.57783 33.1794,108.81639" />
    <path d="m 1076.8919,1001.8691 90.9988,34.5558" />
    <path d="m 180.0669,672.10538 99.8448,-94.59952" />
    <path d="m 12.2071,635.91033 167.8598,36.19505" />
    <path d="m 1316.0986,1156.5396 32.5787,-122.7246" />
    <path d="m 1251.4503,966.49243 -5.1088,145.02237" />
    <path d="m 606.6963,1471.8476 93.4291,-53.9371" />
    <path d="m 1484.7366,736.67433 -58.1019,71.35085" />
    <path d="m 1230.2836,604.12953 92.2137,-38.7405" />
    <path d="m 365.1817,98.49732 44.3504,99.8974" />
    <path d="M 12.2071,635.91033 29.8963,566.53769" />
    <path d="m 1167.8907,1036.4249 83.5596,-69.93247" />
    <path d="M 655.3486,340.569 522.133,317.83788" />
    <path d="m 585.6675,1081.1141 -90.4769,-73.0796" />
    <path d="M 147.4429,579.50814 82.9536,449.51295" />
    <path d="m 1008.7132,516.27623 -83.1577,-27.1365" />
    <path d="m 287.4375,206.95522 -142.119,9.0714" />
    <path d="m 545.7396,429.86039 -111.55,86.9727" />
    <path d="m 1223.3333,254.58022 85.4227,-68.7917" />
    <path d="m 606.6963,1471.8476 -82.1222,-20.7805" />
    <path d="m 545.7396,429.86039 3.0959,86.13619" />
    <path d="M 253.3919,476.58787 378.1241,425.18306" />
    <path d="m 620.468,54.40452 -3.6325,71.5" />
    <path d="m 383.8378,1281.358 82.105,-32.7544" />
    <path d="M 704.8973,402.1137 545.7396,429.86039" />
    <path d="m 1008.7132,516.27623 107.5371,-26.1962" />
    <path d="M 699.50143,636.42933 666.1442,537.54586" />
    <path d="m 1246.3415,1111.5148 69.7571,45.0248" />
    <path d="m 1502.5458,406.98593 69.6142,-47.7365" />
    <path d="m 1230.2836,604.12953 -29.3371,-104.1786" />
    <path d="M 655.3486,340.569 772.0284,261.90022" />
    <path d="m 86.7321,94.69632 128.5119,61.2321" />
    <path d="m 964.18642,840.63143 162.46238,47.9828" />
    <path d="m 657.7632,1225.5917 68.1861,-50.5198" />
    <path d="m 1048.6417,324.91523 -69.8525,15.6873" />
    <path d="m 476.157,1097.1737 -83.4076,-17.7216" />
    <path d="m 1394.7526,422.90323 -96.7129,64.5659" />
    <path d="m 585.6675,1081.1141 20.54899,-95.30476" />
    <path d="m 1577.497,27.03852 -27.9702,114.9048" />
    <path d="M 192.60596,1138.1016 101.4967,1251.0468" />
    <path d="m 882.234,423.06343 96.5552,-82.4609" />
    <path d="m 195.7481,375.8188 -8.0693,102.42822" />
    <path d="m 1223.3333,254.58022 -72.1934,-90.7143" />
    <path d="m 1549.7585,680.09533 -67.6308,-192.2367" />
    <path d="m 1069.6451,1163.7387 -65.9538,129.2582" />
    <path d="m 198.65038,999.10372 79.17622,3.86658" />
    <path d="M 758.1725,1280.9302 725.9493,1175.0719" />
    <path d="M 413.65859,783.07875 264.14888,748.11657" />
    <path d="m 548.8355,515.99658 117.3087,21.54928" />
    <path d="M 833.96812,807.26922 751.35171,740.12991" />
    <path d="m 365.1817,98.49732 22.0119,-76.1531" />
    <path d="m 1510.1272,1196.4528 -109.8464,43.8088" />
    <path d="m 413.65859,783.07875 -4.61379,86.24137" />
    <path d="m 83.79844,1143.9031 27.86673,-78.6176" />
    <path d="m 1493.129,1126.9076 16.9982,69.5452" />
    <path d="m 618.3382,1302.2383 139.8343,-21.3081" />
    <path d="M 585.6675,1081.1141 476.157,1097.1737" />
    <path d="m 1204.3065,710.68703 25.9771,-106.5575" />
    <path d="m 345.3838,1165.3962 -50.4683,-82.5658" />
    <path d="m 1112.0707,1122.6847 134.2708,-11.1699" />
    <path d="m 518.4116,907.78972 -23.221,100.24478" />
    <path d="m 1333.7024,1554.8451 88.8244,-27.2143" />
    <path d="M 545.7396,429.86039 655.3486,340.569" />
    <path d="m 1433.4881,134.38372 -84.6667,-49.1368" />
    <path d="m 1390.0438,896.65063 125.9531,8.1881" />
    <path d="m 1493.129,1126.9076 -51.3644,-71.9017" />
    <path d="m 1422.5268,1527.6308 30.8698,-84.8811" />
    <path d="M 681.2266,1106.4581 706.1753,953.73701" />
    <path d="M 287.4375,206.95522 379.258,328.42118" />
    <path d="m 1112.0707,1122.6847 55.82,-86.2598" />
    <path d="M 751.35171,740.12991 699.50143,636.42933" />
    <path d="m 1470.5298,256.47012 108.8571,-9.8274" />
    <path d="m 198.65038,999.10372 -86.98521,66.18178" />
    <path d="m 248.128,67.86002 39.3095,139.0952" />
    <path d="m 600.4272,635.34073 65.717,-97.79487" />
    <path d="m 1453.3966,1442.7497 -41.0277,-94.1986" />
    <path d="m 1287.5893,25.90462 147.0327,11.7172" />
    <path d="m 681.2266,1106.4581 -95.5591,-25.344" />
    <path d="m 1037.1253,170.72472 114.0146,-6.8588" />
    <path d="m 350.1538,501.91228 27.9703,-76.72922" />
    <path d="M 882.89901,1119.5351 725.9493,1175.0719" />
    <path d="m 1125.0098,791.39422 116.6752,12.14751" />
    <path d="m 868.6853,1338.1417 8.60716,-91.8004" />
    <path d="m 442.2221,1412.0001 45.8828,116.1441" />
    <path d="m 476.02,395.70091 -97.8959,29.48215" />
    <path d="m 167.93489,1316.6129 62.05041,-66.3142" />
    <path d="m 534.1882,1340.8036 -68.2454,-92.2" />
    <path d="m 616.8355,125.90452 90.9369,-28.8019" />
    <path d="M 978.7892,340.60253 937.0539,229.95172" />
    <path d="m 1390.0438,896.65063 -89.9169,-35.7646" />
    <path d="M 704.8973,402.1137 655.3486,340.569" />
    <path d="M 499.0437,136.41682 468.8423,24.12252" />
    <path d="m 868.6853,1338.1417 0.3157,97.8405" />
    <path d="M 379.258,328.42118 195.7481,375.8188" />
    <path d="m 253.3919,476.58787 -65.7131,1.65915" />
    <path d="M 606.21649,985.80934 518.4116,907.78972" />
    <path d="m 906.89712,1038.9781 -23.99811,80.557" />
    <path d="M 828.5563,240.00112 707.7724,97.10262" />
    <path d="M 548.8355,515.99658 514.0669,593.4093" />
    <path d="M 279.9117,577.50586 383.5486,594.7169" />
    <path d="m 83.79844,1143.9031 108.80752,-5.8015" />
    <path d="M 993.65889,750.62236 891.0585,716.33313" />
    <path d="m 215.244,155.92842 32.884,-88.0684" />
    <path d="M 764.4688,1560.2752 700.1254,1417.9105" />
    <path d="m 383.5486,594.7169 10.2537,84.0876" />
    <path d="M 1549.7585,680.09533 1401.6892,561.85943" />
    <path d="M 229.9853,1250.2987 192.60596,1138.1016" />
    <path d="M 772.0284,261.90022 616.8355,125.90452" />
    <path d="M 212.4092,267.80942 379.258,328.42118" />
    <path d="m 862.4956,37.45632 -9.1663,122.8982" />
    <path d="m 725.9493,1175.0719 -44.7227,-68.6138" />
    <path d="m 479.6098,243.63182 19.4339,-107.215" />
    <path d="m 465.9428,1248.6036 121.5516,-36.7142" />
    <path d="m 300.3974,1237.3532 44.9864,-71.957" />
    <path d="M 195.94431,801.2216 22.511,768.70376" />
    <path d="M 964.18642,840.63143 833.96812,807.26922" />
    <path d="m 50.00636,1436.0534 8.52296,-83.7843" />
    <path d="M 545.7396,429.86039 476.02,395.70091" />
    <path d="m 1405.5179,211.11292 27.9702,-76.7292" />
    <path d="M 82.9536,449.51295 127.1612,314.19713" />
    <path d="m 993.65889,750.62236 98.17151,-68.04453" />
    <path d="m 850.428,346.37143 31.806,76.692" />
    <path d="m 1162.8244,335.24423 115.3556,-1.1145" />
    <path d="m 287.3868,1463.8537 -88.45786,-33.092" />
    <path d="m 826.37312,943.52883 7.595,-136.25961" />
    <path d="m 1308.756,185.78852 96.7619,25.3244" />
    <path d="m 618.3382,1302.2383 39.425,-76.6466" />
    <path d="m 1076.8919,1001.8691 49.7569,-113.25487" />
    <path d="m 373.2495,972.99272 -95.4229,29.97758" />
    <path d="m 1116.2503,490.08003 -72.9134,-79.1364" />
    <path d="M 666.1442,537.54586 704.8973,402.1137" />
    <path d="m 495.1906,1008.0345 -102.4412,71.4176" />
    <path d="m 1012.3325,36.73572 211.7568,54.5588" />
    <path d="M 518.4116,907.78972 671.43836,862.45375" />
    <path d="M 268.5387,1556.357 105.25298,1534.4344" />
    <path d="m 1572.16,359.24943 -97.2212,-57.29141" />
    <path d="m 145.3185,216.02662 67.0907,51.7828" />
    <path d="M 751.35171,740.12991 872.9157,562.87483" />
    <path d="m 764.4688,1560.2752 157.9861,8.2727" />
    <path d="M 1594.8218,1141.2319 1553.0386,1026.925" />
    <path d="m 882.234,423.06343 161.1029,-12.1198" />
    <path d="m 287.3868,1463.8537 62.6419,-97.5549" />
    <path d="m 1273.8789,1298.5001 42.2197,-141.9605" />
    <path d="m 522.133,317.83788 65.8149,-66.73196" />
    <path d="m 1553.0386,1026.925 -65.012,-45.35717" />
    <path d="m 383.5486,594.7169 50.641,-77.88381" />
    <path d="m 1563.8899,1532.5445 -53.4837,59.5312" />
    <path d="m 215.244,155.92842 -69.9255,60.0982" />
    <path d="m 455.6092,291.37942 24.0006,-47.7476" />
    <path d="m 1401.6892,561.85943 80.4385,-74.0008" />
    <path d="m 1002.0788,1552.648 50.641,-77.8838" />
    <path d="M 7.5472357,443.46743 29.8963,566.53769" />
    <path d="m 1300.1269,860.88603 -58.4419,-57.3443" />
    <path d="m 996.82804,1078.2504 80.06386,-76.3813" />
    <path d="M 704.8973,402.1137 850.428,346.37143" />
    <path d="m 1401.6892,561.85943 6.8036,84.6666" />
    <path d="M 127.28558,965.31492 61.8957,1017.0976" />
    <path d="m 1224.0893,91.29452 124.7321,-6.0476" />
    <path d="m 996.82804,1078.2504 115.24266,44.4343" />
    <path d="m 1549.5268,141.94332 -116.0387,-7.5596" />
    <path d="m 1412.3689,1348.5511 -12.0881,-108.2895" />
    <path d="M 600.4272,635.34073 478.8461,685.00286" />
    <path d="m 997.23828,1435.7593 55.48152,39.0049" />
    <path d="m 409.0448,869.32012 -35.7953,103.6726" />
    <path d="m 479.6098,243.63182 -70.0777,-45.2371" />
    <path d="M 1012.3325,36.73572 853.3293,160.35452" />
    <path d="m 772.0284,261.90022 56.5279,-21.8991" />
  </g>
  <g stroke="white" stroke-width="2">
    <path d="M 101.4967,1251.0468 -5.17817,1141.2319" />
    <path d="M 1701.4967,1251.0468 1594.8218,1141.2319" />
    <path d="M -27.84,359.24937 7.5472357,443.46743" />
    <path d="m 620.468,1654.4045 -59.6505,-60.3606" />
    <path d="m 268.5387,1556.357 -164.79762,57.0744" />
    <path d="m 560.8175,1594.0439 -91.9752,30.0786" />
    <path d="m -5.17817,1141.2319 88.97661,2.6712" />
    <path d="m 380.0174,-77.41898 7.1762,99.7632" />
    <path d="m 380.0174,1522.581 7.1762,99.7632" />
    <path d="M 560.8175,-5.9560796 468.8423,24.12252" />
    <path d="m 1549.7585,680.09533 62.4486,-44.185" />
    <path d="m 1012.3325,36.73572 120.2647,-85.3952" />
    <path d="m 32.03558,912.39822 -116.03869,-7.5595" />
    <path d="m 1553.0386,1026.925 108.8571,-9.8274" />
    <path d="M -46.96144,1026.925 61.8957,1017.0976" />
    <path d="m 707.7724,1697.1026 56.6964,-136.8274" />
    <path d="m 1549.5268,141.94332 137.2053,-47.247" />
    <path d="m 862.49562,1637.4563 59.95928,-68.9084" />
    <path d="M -50.2415,680.09529 12.2071,635.91033" />
    <path d="m 1703.7411,13.43142 -139.8512,-80.8869" />
    <path d="m 620.468,54.40452 -13.7717,-182.5569" />
    <path d="m 1579.3869,246.64272 147.7743,67.55441" />
    <path d="M 620.468,1654.4045 606.6963,1471.8476" />
    <path d="m 1644.7768,194.86002 -65.3899,51.7827" />
    <path d="M 1510.4062,-7.9242796 1577.497,27.03852" />
    <path d="m 1012.3325,1636.7357 120.2647,-85.3952" />
    <path d="m 248.128,67.86002 20.4107,-111.503" />
    <path d="m 1658.5293,1352.269 -64.1399,-60.8289" />
    <path d="m 1594.3894,1291.4401 107.1073,-40.3933" />
    <path d="M 248.128,1667.8599 268.5387,1556.357" />
    <path d="m 862.4956,37.45632 59.9593,-68.9084" />
    <path d="m 1510.4062,1592.0757 67.0908,34.9628" />
    <path d="m 468.8423,24.12252 19.2626,-95.9783" />
    <path d="M 620.468,54.40452 560.8175,-5.9560796" />
    <path d="m 1186.2917,-18.69658 101.2976,44.6012" />
    <path d="M 1510.4062,-7.9242796 1434.622,37.62182" />
    <path d="m 1482.1277,487.85863 125.4195,-44.3912" />
    <path d="m 1002.0788,-47.35198 10.2537,84.0877" />
    <path d="m 1333.7024,1554.8451 -46.1131,71.0595" />
    <path d="m 1632.0356,912.39823 -116.0387,-7.5595" />
    <path d="m 1186.2917,-18.69658 37.7976,109.9911" />
    <path d="m 1333.7024,-45.15488 -46.1131,71.0595" />
    <path d="m 1510.4062,1592.0757 -75.7842,45.5461" />
    <path d="m 1186.2917,1581.3034 101.2976,44.6012" />
    <path d="M -5.61065,1291.4401 101.4967,1251.0468" />
    <path d="M 1703.7411,13.43142 1577.497,27.03852" />
    <path d="M -115.2634,736.67436 22.511,768.70376" />
    <path d="m 468.8423,1624.1225 19.2626,-95.9783" />
    <path d="m 44.7768,194.86002 -95.25,-52.9167" />
    <path d="M 103.7411,13.43142 -22.503,27.03852" />
    <path d="m 1002.0788,1552.648 10.2537,84.0877" />
    <path d="M 268.5387,-43.64298 103.7411,13.43142" />
    <path d="m 1563.8899,1532.5445 141.3631,1.8898" />
    <path d="m 707.7724,97.10262 56.6964,-136.8274" />
    <path d="m 1542.9003,1464.8967 107.1061,-28.8433" />
    <path d="m 44.7768,194.86002 -65.3899,51.7827" />
    <path d="m 1484.7366,736.67433 137.7744,32.0294" />
    <path d="m -20.6131,246.64272 147.7743,67.55441" />
    <path d="M -57.0997,1464.8967 50.00636,1436.0534" />
    <path d="M -117.8723,487.85857 7.5472357,443.46743" />
    <path d="M -50.4732,141.94332 86.7321,94.69632" />
    <path d="m 58.52932,1352.2691 -64.13997,-60.829" />
    <path d="m -36.11011,1532.5445 141.36309,1.8899" />
    <path d="m 1572.16,359.24943 35.3872,84.218" />
    <path d="m 1594.8218,1141.2319 88.9766,2.6712" />
    <path d="m 1186.2917,1581.3034 37.7976,109.9911" />
    <path d="m 103.74108,1613.4314 1.5119,-78.997" />
    <path d="m 103.7411,13.43142 1.5119,-78.997" />
    <path d="m 1644.7768,194.86002 -95.25,-52.9167" />
  </g>
  <g fill="white">
    <circle r="5" cx="514.49384" cy="593.9975" />
    <circle r="5" cx="1594.3036" cy="1141.137" />
    <circle r="5" cx="301.24701" cy="1237.5209" />
    <circle r="5" cx="764.26782" cy="1559.9346" />
    <circle r="5" cx="681.86902" cy="1106.7411" />
    <circle r="5" cx="534.08032" cy="1341.4642" />
    <circle r="5" cx="61.895691" cy="1016.3417" />
    <circle r="5" cx="906.3869" cy="1039.0834" />
    <circle r="5" cx="1484.3125" cy="737.08038" />
    <circle r="5" cx="476.25" cy="1097.6697" />
    <circle r="5" cx="998.23511" cy="1436.3363" />
    <circle r="5" cx="188.42502" cy="478.53708" />
    <circle r="5" cx="794.59229" cy="471.85535" />
    <circle r="5" cx="43.793976" cy="195.38908" />
    <circle r="5" cx="456.51624" cy="290.77478" />
    <circle r="5" cx="83.120819" cy="449.40469" />
    <circle r="5" cx="791.10413" cy="1047.0209" />
    <circle r="5" cx="351.19214" cy="502.32407" />
    <circle r="5" cx="1105.4268" cy="580.36676" />
    <circle r="5" cx="1166.8125" cy="1474.8899" />
    <circle r="5" cx="394.75708" cy="678.18744" />
    <circle r="5" cx="937.00293" cy="230.97026" />
    <circle r="5" cx="1565.8661" cy="1532.4583" />
    <circle r="5" cx="1049.3002" cy="325.39166" />
    <circle r="5" cx="1405.5178" cy="211.86896" />
    <circle r="5" cx="525.00891" cy="1451.4553" />
    <circle r="5" cx="364.936" cy="97.544678" />
    <circle r="5" cx="706.4375" cy="954.41669" />
    <circle r="5" cx="1510.4062" cy="1592.0757" />
    <circle r="5" cx="709.06604" cy="96.876213" />
    <circle r="5" cx="212.97607" cy="267.05341" />
    <circle r="5" cx="1402.0959" cy="562.72699" />
    <circle r="5" cx="1116.9193" cy="490.29694" />
    <circle r="5" cx="1433.488" cy="134.00568" />
    <circle r="5" cx="751.82916" cy="739.9267" />
    <circle r="5" cx="1397.756" cy="982.00897" />
    <circle r="5" cx="1593.9255" cy="1291.5714" />
    <circle r="5" cx="523.26709" cy="319.34973" />
    <circle r="5" cx="1133.1726" cy="1551.9971" />
    <circle r="5" cx="413.50595" cy="782.81549" />
    <circle r="5" cx="1488.0266" cy="982.32391" />
    <circle r="5" cx="1553.0386" cy="1026.9252" />
    <circle r="5" cx="317.12201" cy="1336.1726" />
    <circle r="5" cx="666.03564" cy="538.13818" />
    <circle r="5" cx="112.25893" cy="1065.5416" />
    <circle r="5" cx="1048.1279" cy="1363.7649" />
    <circle r="5" cx="1092.3306" cy="682.73102" />
    <circle r="5" cx="1409.4731" cy="647.12207" />
    <circle r="5" cx="964.59521" cy="841.0238" />
    <circle r="5" cx="1008.9424" cy="517.29114" />
    <circle r="5" cx="585.48511" cy="1080.2827" />
    <circle r="5" cx="479.74878" cy="685.13641" />
    <circle r="5" cx="199.19345" cy="1430.2887" />
    <circle r="5" cx="584.3512" cy="757.49109" />
    <circle r="5" cx="921.88391" cy="1568.25" />
    <circle r="5" cx="267.93909" cy="1556.5872" />
    <circle r="5" cx="1204.0492" cy="710.79431" />
    <circle r="5" cx="32.413574" cy="913.15424" />
    <circle r="5" cx="995.57898" cy="647.45142" />
    <circle r="5" cx="605.89581" cy="985.7887" />
    <circle r="5" cx="146.73097" cy="579.03046" />
    <circle r="5" cx="384.06631" cy="595.06659" />
    <circle r="5" cx="1004.2827" cy="1293.8392" />
    <circle r="5" cx="7.7508163" cy="444.59387" />
    <circle r="5" cx="671.28571" cy="862.19049" />
    <circle r="5" cx="655.87939" cy="341.16055" />
    <circle r="5" cx="1288.3452" cy="25.904606" />
    <circle r="5" cx="1475.619" cy="302.40778" />
    <circle r="5" cx="1037.5447" cy="170.87206" />
    <circle r="5" cx="826.63391" cy="944.2113" />
    <circle r="5" cx="1230.5089" cy="604.15375" />
    <circle r="5" cx="1317.625" cy="1157.7678" />
    <circle r="5" cx="1482.2767" cy="488.15878" />
    <circle r="5" cx="1246.1875" cy="1112.0327" />
    <circle r="5" cx="499.79401" cy="137.2339" />
    <circle r="5" cx="882.95239" cy="1119.5923" />
    <circle r="5" cx="891.34387" cy="717.20874" />
    <circle r="5" cx="1348.619" cy="1034.5476" />
    <circle r="5" cx="409.34821" cy="869.75" />
    <circle r="5" cx="545.41962" cy="430.54169" />
    <circle r="5" cx="828.8028" cy="239.8654" />
    <circle r="5" cx="779.89246" cy="582.77222" />
    <circle r="5" cx="548.97162" cy="516.75665" />
    <circle r="5" cx="1322.4496" cy="565.39966" />
    <circle r="5" cx="253.69431" cy="476.73914" />
    <circle r="5" cx="345.09225" cy="1165.7053" />
    <circle r="5" cx="1091.5952" cy="250.24706" />
    <circle r="5" cx="1129.3928" cy="1266.625" />
    <circle r="5" cx="1390.1964" cy="897.72028" />
    <circle r="5" cx="869.34521" cy="1435.5803" />
    <circle r="5" cx="1152.2738" cy="164.24396" />
    <circle r="5" cx="87.034409" cy="94.545113" />
    <circle r="5" cx="1348.0654" cy="85.624817" />
    <circle r="5" cx="1252.2351" cy="968.0238" />
    <circle r="5" cx="167.82143" cy="1316.8959" />
    <circle r="5" cx="1333.7024" cy="1555.6011" />
    <circle r="5" cx="1224.0892" cy="254.95831" />
    <circle r="5" cx="850.71887" cy="346.50595" />
    <circle r="5" cx="997.85712" cy="1078.3928" />
    <circle r="5" cx="469.05801" cy="23.777994" />
    <circle r="5" cx="1163.6915" cy="335.54788" />
    <circle r="5" cx="1579.387" cy="245.88678" />
    <circle r="5" cy="1435.9104" cx="51.27726" />
    <circle r="5" cx="853.92615" cy="159.95181" />
    <circle r="5" cx="964.21722" cy="1191.4077" />
    <circle r="5" cx="1224.0892" cy="91.672424" />
    <circle r="5" cx="620.59985" cy="53.845818" />
    <circle r="5" cx="127.75483" cy="314.96814" />
    <circle r="5" cx="146.22545" cy="215.64862" />
    <circle r="5" cx="210.15475" cy="886.75897" />
    <circle r="5" cx="1111.6279" cy="1122.6161" />
    <circle r="5" cx="480.01605" cy="243.60718" />
    <circle r="5" cx="105.63092" cy="1535.5682" />
    <circle r="5" cx="280.633" cy="577.42682" />
    <circle r="5" cx="1069.6726" cy="1165.3274" />
    <circle r="5" cx="373.44046" cy="974.82739" />
    <circle r="5" cx="700.38989" cy="1418.9495" />
    <circle r="5" cx="1454.0743" cy="1443.1399" />
    <circle r="5" cx="192.38988" cy="1140.0029" />
    <circle r="5" cx="1300.238" cy="861.8125" />
    <circle r="5" cx="979.27551" cy="340.62601" />
    <circle r="5" cx="704.78973" cy="402.36526" />
    <circle r="5" cx="699.44434" cy="636.22607" />
    <circle r="5" cx="1052.6637" cy="1474.1339" />
    <circle r="5" cx="1426.8601" cy="808.51788" />
    <circle r="5" cx="1435.756" cy="38.75568" />
    <circle r="5" cx="518.9613" cy="907.9256" />
    <circle r="5" cx="1515.9969" cy="904.46075" />
    <circle r="5" cx="264.20535" cy="748.04169" />
    <circle r="5" cx="85.04464" cy="1143.8583" />
    <circle r="5" cx="758.22021" cy="1280.9882" />
    <circle r="5" cx="1412.875" cy="1348.6459" />
    <circle r="5" cx="180.13966" cy="671.50568" />
    <circle r="5" cx="103.81667" cy="12.902173" />
    <circle r="5" cx="1502.8566" cy="407.71066" />
    <circle r="5" cx="1164.1666" cy="1387.5774" />
    <circle r="5" cx="869.34521" cy="1338.8185" />
    <circle r="5" cx="288.3446" cy="207.03073" />
    <circle r="5" cx="1441.6012" cy="1055.7144" />
    <circle r="5" cx="384.0238" cy="1281.3661" />
    <circle r="5" cx="378.12402" cy="424.80518" />
    <circle r="5" cx="1518.7083" cy="1325.5892" />
    <circle r="5" cx="442.61011" cy="1412.1459" />
    <circle r="5" cx="409.18964" cy="197.90408" />
    <circle r="5" cx="1002.7708" cy="1553.131" />
    <circle r="5" cx="295.57736" cy="1083.3065" />
    <circle r="5" cx="393.47321" cy="1080.2827" />
    <circle r="5" cx="1297.8608" cy="488.15878" />
    <circle r="5" cx="1394.8796" cy="422.94504" />
    <circle r="5" cx="588.26019" cy="250.82346" />
    <circle r="5" cx="1242.2687" cy="803.80408" />
    <circle r="5" cx="772.40894" cy="262.04877" />
    <circle r="5" cx="1278.0829" cy="334.47882" />
    <circle r="5" cx="195.6413" cy="376.7074" />
    <circle r="5" cx="1389.0625" cy="1186.494" />
    <circle r="5" cx="476.39795" cy="395.70105" />
    <circle r="5" cx="617.99103" cy="1302.9108" />
    <circle r="5" cx="1125.9911" cy="888.6488" />
    <circle r="5" cx="994.07733" cy="751.44348" />
    <circle r="5" cx="30.201456" cy="567.0033" />
    <circle r="5" cx="1549.9048" cy="142.69928" />
    <circle r="5" cx="560.73145" cy="1593.9865" />
    <circle r="5" cx="214.48828" cy="155.55048" />
    <circle r="5" cx="1470.5298" cy="256.47003" />
    <circle r="5" cx="278.19046" cy="1004.3095" />
    <circle r="5" cx="925.82159" cy="489.49515" />
    <circle r="5" cx="606.2738" cy="1471.488" />
    <circle r="5" cx="657.3006" cy="1225.4257" />
    <circle r="5" cx="1347.4851" cy="314.88098" />
    <circle r="5" cx="495.52676" cy="1009.2232" />
    <circle r="5" cx="1322.9166" cy="1360.3632" />
    <circle r="5" cx="466.8006" cy="1249.6161" />
    <circle r="5" cx="1542.8988" cy="1465.0625" />
    <circle r="5" cx="487.58926" cy="1528.5625" />
    <circle r="5" cx="58.964283" cy="1352.4257" />
    <circle r="5" cx="349.62796" cy="1367.5447" />
    <circle r="5" cx="387.61456" cy="22.705389" />
    <circle r="5" cx="878.0387" cy="1247.3483" />
    <circle r="5" cx="199.19345" cy="999.39587" />
    <circle r="5" cx="196.54761" cy="802.84821" />
    <circle r="5" cx="101.29762" cy="1251.506" />
    <circle r="5" cx="588.13092" cy="1211.8185" />
    <circle r="5" cx="1572.3809" cy="359.86014" />
    <circle r="5" cx="378.80432" cy="328.49683" />
    <circle r="5" cx="1510.0149" cy="1196.6995" />
    <circle r="5" cx="1167.5685" cy="1036.8154" />
    <circle r="5" cx="1423.4583" cy="1527.0505" />
    <circle r="5" cx="380.62201" cy="1524.0267" />
    <circle r="5" cx="12.828937" cy="635.95886" />
    <circle r="5" cx="1400.7798" cy="1240.5447" />
    <circle r="5" cx="872.63501" cy="563.79608" />
    <circle r="5" cx="1274.5356" cy="1299.131" />
    <circle r="5" cx="1240.3978" cy="410.91791" />
    <circle r="5" cx="601.08917" cy="635.42432" />
    <circle r="5" cx="1124.6702" cy="791.5097" />
    <circle r="5" cx="1044.222" cy="411.18518" />
    <circle r="5" cx="1550.0803" cy="679.25" />
    <circle r="5" cx="726.47021" cy="1175.9108" />
    <circle r="5" cx="1347.3057" cy="707.85431" />
    <circle r="5" cx="434.04572" cy="517.02393" />
    <circle r="5" cx="229.43155" cy="1250.75" />
    <circle r="5" cx="1077.2322" cy="1002.4197" />
    <circle r="5" cx="127.89033" cy="965.315" />
    <circle r="5" cx="23.8125" cy="769.20837" />
    <circle r="5" cx="288.01785" cy="1464.3065" />
    <circle r="5" cx="1200.8419" cy="500.45319" />
    <circle r="5" cx="833.4375" cy="807.38397" />
    <circle r="5" cx="248.27916" cy="68.086739" />
    <circle r="5" cx="617.12531" cy="125.20678" />
    <circle r="5" cx="1494.1399" cy="1127.9077" />
    <circle r="5" cx="1012.8179" cy="36.60693" />
    <circle r="5" cx="862.47876" cy="38.076916" />
    <circle r="5" cx="883.05847" cy="423.21228" />
    <circle r="5" cx="1011.0863" cy="952.90479" />
    <circle r="5" cx="1187.8899" cy="1582.7291" />
    <circle r="5" cx="1308.5292" cy="185.41046" />
    <circle r="5" cx="1578.631" cy="28.550358" />
  </g>
</svg>
