<svg xmlns="http://www.w3.org/2000/svg" viewBox="0 0 460 550" version="1.0">
  <path
    d="m 134.3045,549.997 c -0.0827,0.009 -0.15749,-0.002 -0.22266,-0.0287 -0.0521,0 -1.04256,-0.31367 -2.18945,-0.68164 -2.71081,-0.89353 -4.22264,-1.68229 -20.59177,-10.82812 C 81.116753,521.53345 65.996965,514.85806 30.130817,502.66358 8.5485677,495.35735 6.256541,494.46343 4.7968631,492.99171 4.3276938,492.57118 3.0752156,491.88693 1.9804671,491.51905 0.88570872,491.15107 0,490.52162 0,490.10108 c 0,-1.10374 4.6922232,-3.25879 13.033181,-5.93945 23.980276,-7.77923 35.448179,-11.67028 43.632757,-14.77148 17.672415,-6.67539 36.335778,-15.45244 57.761622,-27.17383 17.93307,-9.77669 22.6773,-11.82729 23.82419,-10.35547 2.03311,2.62801 -7.19495,13.40398 -19.65426,22.86523 -17.82881,13.56109 -40.348173,24.17814 -66.726475,31.48438 -3.597045,0.99863 -7.08986,1.78711 -7.767559,1.78711 -0.677709,0 -1.146628,0.10601 -0.990238,0.26367 0.14652,0.14771 6.90999,-0.0358 15.255838,-0.4043 0.522069,-0.0625 1.060978,-0.0971 1.632807,-0.0684 C 250.97165,487.14698 255.04171,447.114 249.02308,418.39011 241.11966,380.67108 164.46745,343.12772 95.017443,333.03269 c 102.207867,3.90067 159.481487,51.80347 164.802497,80.59765 2.43439,13.17355 4.58897,31.23684 -4.55078,43.34266 C 365.87657,426.86955 447.55307,320.9676 447.56994,250.08422 447.59881,128.79264 387.42649,32.283787 184.74189,0 372.04867,15.87386 460.44523,104.13845 459.99806,245.42289 459.51201,398.9892 265.42732,506.62169 60.210853,495.14602 c -6.72491,-0.42054 -12.301972,-0.68324 -12.406232,-0.57813 -0.10426,0.0526 1.093658,0.42118 2.605466,0.78906 9.539976,2.26033 25.074804,7.88369 35.761659,12.92969 16.577674,7.83178 32.061854,18.6067 41.966744,29.11914 4.43114,4.67813 7.66209,9.35721 7.66209,11.0918 0,0.59781 -0.91734,1.43975 -1.49608,1.49942 z"
    fill="#aaaa00" />
</svg>
