<svg xmlns="http://www.w3.org/2000/svg" viewBox="0 0 880 510" version="1.0">
  <path
    d="m 758.70119,0.00221001 c -0.0827,-0.009 -0.15749,0.01071 -0.22266,0.037 -0.0521,0 -1.04257,0.31367 -2.18946,0.68164 -2.71082,0.89352989 -4.22265,1.68228989 -20.59184,10.82811999 -30.18397,16.925061 -45.30382,23.600451 -81.17009,35.794931 -21.58232,7.30623 -23.87435,8.20015 -25.33404,9.67187 -0.46917,0.42053 -1.72165,1.10478 -2.81641,1.47266 -1.09475,0.36798 -1.99683,0.997308 -1.99683,1.417848 0,1.10374 4.7086,3.258912 13.04959,5.939572 23.98035,7.77923 35.4483,11.67028 43.6329,14.77148 17.67248,6.67539 36.33591,15.45244 57.76183,27.173829 17.93313,9.77669 22.67738,11.82729 23.82427,10.35547 2.03312,-2.62801 -7.19497,-13.40398 -19.65433,-22.865229 -17.82887,-13.56109 -40.34831,-24.17814 -66.72671,-31.48438 -3.59705,-0.99863 -7.08988,-1.78711 -7.76758,-1.78711 -0.67771,0 -1.14664,-0.10601 -0.99025,-0.26367 0.14652,-0.14771 6.91002,0.0358 15.2559,0.4043 0.52207,0.0625 1.06098,0.0971 1.63281,0.0684 C 863.48932,74.657961 821.45845,140.98036 797.83884,164.50588 724.65485,237.39835 248.31863,248.42723 0,260.13606 c 277.74318,0.73493 723.04149,-22.03395 794.43472,-75.32115 18.69879,-13.95659 35.34805,-28.91777 39.17671,-63.81029 21.95944,26.34211 38.03925,75.01712 33.18735,118.04928 C 849.66937,390.97685 642.48897,489.39445 152.50896,510.00026 500.57212,509.8223 871.5864,437.03245 879.74934,238.23853 882.37275,174.35001 867.52451,45.645122 684.60728,54.861461 c -6.72493,0.42054 -12.30201,0.68324 -12.40627,0.57813 -0.10426,-0.0526 1.09366,-0.42118 2.60547,-0.78906 9.54001,-2.26033 25.0749,-7.88369 35.76178,-12.92969 16.57774,-7.83178 32.06197,-18.6067 41.9669,-29.119139 4.43115,-4.6781301 7.66211,-9.3572101 7.66211,-11.0918001 0,-0.59780999 -0.91734,-1.44802189 -1.49608,-1.50769189 z"
    fill="#aaaa00" />
</svg>
