<svg xmlns="http://www.w3.org/2000/svg" viewBox="0 0 370 550" version="1.0">
  <path
    d="m 235.69529,0 c 0.0827,-0.009 0.15749,0.0032195 0.22266,0.0295095 0.0521,0 1.04256,0.31367 2.18945,0.68164 2.71081,0.89353 4.22265,1.68229 20.5918,10.8281205 30.18391,16.92506 45.30372,23.60045 81.16992,35.79493 21.58228,7.30623 23.87431,8.20015 25.33399,9.67187 0.46917,0.42053 1.72165,1.10478 2.8164,1.47266 1.09476,0.36798 1.98047,0.99773 1.98047,1.41827 0,1.10374 -4.69223,3.25849 -13.0332,5.93915 -23.98031,7.77923 -35.44823,11.67028 -43.63282,14.77148 -17.67244,6.67539 -36.33583,15.45244 -57.76171,27.17383 -17.93309,9.77669 -22.67733,11.82729 -23.82422,10.35547 -2.03311,-2.62801 7.19496,-13.40398 19.65429,-22.86523 17.82883,-13.56109 40.34823,-24.17814 66.72657,-31.48438 3.59705,-0.99863 7.08987,-1.78711 7.76757,-1.78711 0.67771,0 1.14663,-0.10601 0.99024,-0.26367 -0.14652,-0.14771 -6.91,0.0358 -15.25586,0.4043 -0.52207,0.0625 -1.06098,0.0971 -1.63281,0.0684 -190.97006,0.64156 -195.04013,40.67454 -189.02149,69.39843 7.90343,37.71903 84.55575,65.00232 154.00586,75.09735 -102.20801,-3.90067 -159.48172,-41.5434 -164.80273,-70.33758 -2.4344,-13.17355 -4.58898,-26.57582 4.55078,-38.68164 C 39.265399,156.35722 13.217199,214.84414 10.95506,277.49043 6.0485608,413.36803 68.75175,519.40889 274.9824,550.0002 87.67535,534.12634 2.5470803,452.67573 0.04295033,299.12911 -2.4611297,145.58245 104.57228,43.37609 309.78904,54.85176 c 6.72492,0.42054 12.30199,0.68324 12.40625,0.57813 0.10426,-0.0526 -1.09366,-0.42118 -2.60547,-0.78906 C 310.04983,52.3805 294.51498,46.75714 283.82811,41.71114 267.25041,33.87936 251.76621,23.10444 241.86131,12.592 237.43016,7.9138695 234.1992,3.2347895 234.1992,1.5001995 234.1992,0.9023895 235.11655,0.05967 235.69529,0 Z"
    fill="#aaaa00" />
</svg>
