<svg xmlns="http://www.w3.org/2000/svg" viewBox="0 0 460 550" version="1.0">
  <path
    d="m 325.70113,0.0041095 c 0.0827,-0.009 0.15749,-8.9e-4 0.22266,0.0254 0.0521,0 1.04257,0.31367 2.18946,0.68164 2.71082,0.89353 4.22265,1.68229 20.59184,10.8281205 30.18397,16.92506 45.30382,23.60045 81.17009,35.79493 21.58232,7.30623 23.87435,8.20015 25.33404,9.67187 0.46917,0.42053 1.72165,1.10478 2.81641,1.47266 1.09475,0.36798 1.98046,0.99743 1.98046,1.41797 0,1.10374 -4.69223,3.25879 -13.03322,5.93945 -23.98035,7.77923 -35.4483,11.67028 -43.6329,14.77148 -17.67248,6.67539 -36.33591,15.45244 -57.76183,27.17383 -17.93313,9.77669 -22.67738,11.82729 -23.82427,10.35547 -2.03312,-2.62801 7.19497,-13.40398 19.65433,-22.86523 17.82887,-13.56109 40.34831,-24.17814 66.72671,-31.48438 3.59705,-0.99863 7.08988,-1.78711 7.76758,-1.78711 0.67771,0 1.14664,-0.10601 0.99025,-0.26367 -0.14652,-0.14771 -6.91002,0.0358 -15.2559,0.4043 -0.52207,0.0625 -1.06098,0.0971 -1.63281,0.0684 -190.97045,0.64156 -195.04052,40.67454 -189.02187,69.39843 7.90344,37.71903 84.55592,75.26239 154.00617,85.35742 C 262.7801,213.06442 205.50629,165.16162 200.18526,136.36744 197.75086,123.19389 195.59627,105.1306 204.73605,93.02478 94.12826,123.12823 15.435328,228.63199 12.588072,298.54782 8.7061615,393.87014 49.855969,527.64848 229.72018,550.0002 81.13897,545.66177 -1.7499872,452.68586 0.02802581,299.12911 1.6437328,159.58975 194.57786,43.37609 399.79504,54.85176 c 6.72493,0.42054 12.30201,0.68324 12.40627,0.57813 0.10426,-0.0526 -1.09366,-0.42118 -2.60547,-0.78906 -9.54001,-2.26033 -25.0749,-7.88369 -35.76178,-12.92969 -16.57774,-7.83178 -32.06197,-18.6067 -41.9669,-29.11914 -4.43115,-4.6781305 -7.66211,-9.3572105 -7.66211,-11.0918005 0,-0.59781 0.91734,-1.43642 1.49608,-1.49609 z"
    fill="#aaaa00" />
</svg>
