<svg xmlns="http://www.w3.org/2000/svg" viewBox="0 0 500 550" version="1.0">
  <path
    d="m 365.69273,0.0039095 c 0.0827,-0.009 0.15749,-8.9e-4 0.22267,0.0254 0.0521,0 1.04258,0.31367 2.18949,0.68164 2.71087,0.89353 4.22273,1.68229 20.5922,10.8281205 30.18448,16.92506 45.3046,23.60045 81.17148,35.79493 21.58269,7.30623 23.87476,8.20015 25.33448,9.67187 0.46918,0.42053 1.72168,1.10478 2.81646,1.47266 1.09477,0.36798 1.98049,0.99743 1.98049,1.41797 0,1.10374 -4.69231,3.25879 -13.03344,5.93945 -23.98076,7.77923 -35.44891,11.67028 -43.63365,14.77148 -17.67278,6.67539 -36.33654,15.45244 -57.76282,27.17383 -17.93344,9.77669 -22.67777,11.82729 -23.82468,10.35547 -2.03316,-2.62801 7.19509,-13.40398 19.65466,-22.86523 17.82918,-13.56109 40.34901,-24.17814 66.72786,-31.48438 3.59711,-0.99863 7.09,-1.78711 7.76772,-1.78711 0.67771,0 1.14666,-0.10601 0.99026,-0.26367 -0.14652,-0.14771 -6.91013,0.0358 -15.25617,0.4043 -0.52207,0.0625 -1.06099,0.0971 -1.63283,0.0684 -190.97373,0.64156 -194.36059,45.57481 -191.02511,69.39843 5.90864,42.20233 32.60751,122.78644 214.27104,155.96947 C 270.47772,277.38449 241.74795,166.9093 238.17472,136.36724 236.61802,123.06139 234.18523,104.95667 256.72558,87.02458 86.531915,142.9878 15.573272,243.18924 10.574053,344.42782 6.3982805,428.99088 33.581225,527.68968 116.36354,550 54.394797,548.21626 -0.9402791,475.49501 0.01379099,338.41744 0.98503692,198.87211 169.69906,47.412874 439.78792,54.85156 c 6.72504,0.42054 12.30222,0.68324 12.40648,0.57813 0.10427,-0.0526 -1.09367,-0.42118 -2.60551,-0.78906 C 440.04871,52.3803 424.51356,46.75694 413.8265,41.71094 397.24846,33.87916 381.76397,23.10424 371.85887,12.5918 367.42764,7.9136695 364.19663,3.2345895 364.19663,1.4999995 c 0,-0.59781 0.91736,-1.43642 1.4961,-1.49609 z"
    fill="#aaaa00" />
</svg>
