<svg xmlns="http://www.w3.org/2000/svg" viewBox="0 0 460 470" version="1.0">
  <path
    d="m 325.67311,0.00300837 c 0.0827,-0.009 0.15749,0.00264133 0.22266,0.02893133 0.0521,0 1.04257,0.31367 2.18946,0.68164 2.71082,0.89353 4.22265,1.68229 20.59184,10.8281203 30.18397,16.92506 45.30382,23.60045 81.17009,35.79493 21.58232,7.30623 23.87435,8.20015 25.33404,9.67187 0.46917,0.42053 1.72165,1.10478 2.81641,1.47266 1.09475,0.36798 2.00239,0.997308 2.00239,1.417848 0,1.10374 -4.71416,3.258912 -13.05515,5.939572 -23.98035,7.77923 -35.4483,11.67028 -43.6329,14.77148 -17.67248,6.67539 -36.33591,15.45244 -57.76183,27.17383 -17.93313,9.77669 -22.67738,11.82729 -23.82427,10.35547 -2.03312,-2.62801 7.19497,-13.40398 19.65433,-22.86523 17.82887,-13.56109 40.34831,-24.17814 66.72671,-31.48438 3.59705,-0.99863 7.08988,-1.78711 7.76758,-1.78711 0.67771,0 1.14664,-0.10601 0.99025,-0.26367 -0.14652,-0.14771 -6.91002,0.0358 -15.2559,0.4043 -0.52207,0.0625 -1.06098,0.0971 -1.63281,0.0684 -190.97045,0.64156 -195.58221,38.25918 -189.56356,66.98307 7.90344,37.71903 85.09761,60.57762 154.54786,70.67265 C 262.75208,195.96672 204.0551,157.67605 198.18543,130.85678 195.32124,117.76994 192.98567,95.351287 222.14557,78.847381 73.209216,116.42424 12.611752,188.5756 12.560056,258.54936 12.489549,353.98513 50.396301,435.59985 229.69216,470 100.67298,459.17311 0.05538409,411.83852 9.8665706e-6,259.13065 -0.05059263,119.58195 194.54984,43.37852 399.76702,54.85419 c 6.72493,0.42054 12.30201,0.68324 12.40627,0.57813 0.10426,-0.0526 -1.09366,-0.42118 -2.60547,-0.78906 -9.54001,-2.26033 -25.0749,-7.88369 -35.76178,-12.92969 -16.57774,-7.83178 -32.06197,-18.6067 -41.9669,-29.11914 -4.43115,-4.6781303 -7.66211,-9.3572103 -7.66211,-11.0918003 0,-0.59781 0.91734,-1.43995133 1.49608,-1.49962133 z"
    fill="#aaaa00" />
</svg>
