<svg xmlns="http://www.w3.org/2000/svg" viewBox="0 0 370 550" version="1.0">
  <path
    d="m 235.69529,0.00293505 c 0.0827,-0.009 0.15749,0.0032195 0.22266,0.0295095 0.0521,0 1.04256,0.31367 2.18945,0.68163999 2.71081,0.89353006 4.22265,1.68229006 20.5918,10.82812046 30.18391,16.92506 45.30372,23.60045 81.16992,35.79493 21.58228,7.30623 23.87431,8.200148 25.33399,9.671868 0.46917,0.420533 1.72165,1.104781 2.8164,1.472661 1.09476,0.36798 1.98047,0.997733 1.98047,1.418271 0,1.103741 -4.69223,3.258488 -13.0332,5.939149 -23.98031,7.779233 -35.44823,11.67028 -43.63282,14.771483 -17.67244,6.675388 -36.33583,15.452437 -57.76171,27.173833 -17.93309,9.77669 -22.67733,11.82729 -23.82422,10.35547 -2.03311,-2.62801 7.19496,-13.40398 19.65429,-22.865235 17.82883,-13.561091 40.34823,-24.178143 66.72657,-31.484379 3.59705,-0.99863 7.08987,-1.787109 7.76757,-1.787109 0.67771,0 1.14663,-0.106013 0.99024,-0.263671 -0.14652,-0.147709 -6.91,0.0358 -15.25586,0.404296 -0.52207,0.0625 -1.06098,0.0971 -1.63281,0.0684 -190.97006,0.641557 -195.04013,40.674548 -189.02149,69.398438 7.90343,37.71903 84.55575,65.00232 154.00586,75.09735 -102.20801,-3.90067 -159.48172,-41.5434 -164.80273,-70.33758 -2.4344,-13.17355 -4.58898,-26.57582 4.55078,-38.681647 C 39.265401,156.36016 13.217199,214.84708 10.95506,277.49337 6.048561,413.37097 68.75175,519.40863 274.9824,549.99994 87.675351,534.12608 2.5470803,452.67867 0.04295033,299.13205 -2.4611297,145.58539 104.57228,43.379025 309.78904,54.854695 c 6.72492,0.420539 12.30199,0.683242 12.40625,0.578131 0.10426,-0.0526 -1.09366,-0.421181 -2.60547,-0.789061 -9.53999,-2.26033 -25.07484,-7.88369 -35.76171,-12.92969 -16.5777,-7.83178 -32.0619,-18.6067 -41.9668,-29.11914 -4.43115,-4.6781305 -7.66211,-9.3572104 -7.66211,-11.0918004 0,-0.59781007 0.91735,-1.44052955 1.49609,-1.50019955 z"
    fill="#aaaa00" />
</svg>
