<svg xmlns="http://www.w3.org/2000/svg" viewBox="0 0 680 220" version="1.0">
  <path
    d="M 0,0.15020466 C 93.36758,4.9310847 237.47454,11.545074 304.46757,14.771179 852.1662,41.146064 652.27281,140.38838 467.38341,156.86621 c -5.76462,-0.32583 -13.85187,-0.22647 -24.73633,0.57967 -0.15523,-0.15976 0.31168,-0.26739 0.98437,-0.26739 0.67269,0 4.13854,-0.79933 7.70899,-1.81121 26.18326,-7.40316 48.53739,-18.16196 66.23437,-31.90295 12.36719,-9.58678 21.52589,-20.50414 19.50782,-23.16701 -1.13841,-1.491336 -5.84602,0.5861 -23.64649,10.49249 -21.26744,11.87688 -39.79223,20.77104 -57.33398,27.53498 -8.12405,3.14235 -19.50954,7.08343 -43.3125,14.96586 -8.27929,2.71622 -12.93555,4.90073 -12.93555,6.01912 0,0.42613 0.88014,1.06362 1.9668,1.43648 1.08666,0.37276 2.32726,1.065 2.79297,1.49112 1.44888,1.49124 3.72576,2.39843 25.14843,9.80159 35.60095,12.35626 50.60767,19.11937 80.56836,36.26897 16.2481,9.26716 17.7487,10.06527 20.43946,10.97066 1.13841,0.37285 2.12212,0.69286 2.17382,0.69286 0.51746,0.21301 1.70704,-0.79884 1.70704,-1.49111 -10e-6,-1.7576 -3.20709,-6.49787 -7.60547,-11.23806 -9.83165,-10.6519 -25.20115,-21.57055 -41.65625,-29.50623 -10.60784,-5.11294 -26.02861,-10.81164 -35.49805,-13.10196 -1.50062,-0.37276 -2.68942,-0.74499 -2.58594,-0.79825 7.79936,0.85496 14.67511,0.77287 20.01758,0.19127 C 673.08482,152.63525 844.6032,43.957536 405.8596,10.012036 204.11126,1.3163022 201.93355,-0.60620824 0,0.15020466 Z"
    fill="#aaaa00" />
</svg>
