<svg xmlns="http://www.w3.org/2000/svg" version="1.1" viewBox="0 0 160 160" width="16" height="16">
  <path fill="white" d="m 81.283006,159.8247 c -6.606394,-0.88935 -12.311064,-3.65772 -12.311064,-5.97431 0,-2.10334 4.921356,-3.34356 10.922315,-2.75251 9.175259,0.90369 15.911489,4.76051 12.835379,7.34888 -0.41936,0.35288 -1.34825,0.82177 -2.0642,1.042 -1.59999,0.49216 -6.83077,0.67945 -9.38243,0.33594 z m 0.07414,-12.38016 c -0.412837,-0.0587 -1.651359,-0.22492 -2.752269,-0.36929 -2.474886,-0.32453 -5.358012,-1.10456 -6.990038,-1.89114 -1.514013,-0.7297 -1.550876,-0.73039 -1.741836,-0.0324 -0.21226,0.77583 -0.855511,1.56764 -1.086121,1.33696 -0.104632,-0.10466 -0.199079,-2.292 -0.209886,-4.86075 -0.02797,-6.65023 -0.850874,-11.14655 -2.938305,-16.05483 C 63.609693,120.8022 61.54317,117.59813 54.826599,108.80929 46.115512,97.410576 42.857398,91.368736 41.151584,83.450356 c -0.459006,-2.1307 -0.548785,-3.36391 -0.55825,-7.66825 -0.01301,-5.92264 0.310579,-8.1591 1.850161,-12.78681 2.877993,-8.65072 8.314578,-15.70752 15.894704,-20.63168 4.099372,-2.66301 8.796755,-4.600358 13.724357,-5.660365 3.718315,-0.799868 10.64223,-0.802213 14.6059,-0.0049 7.81696,1.572336 14.345964,5.040665 19.850004,10.544705 6.80159,6.8016 10.49463,15.22662 10.9095,24.88812 0.33721,7.85293 -1.20288,13.23495 -7.23789,25.29379 -5.35869,10.707444 -8.93844,19.360374 -14.690764,35.510374 -2.13476,5.99348 -3.07414,8.15058 -3.54944,8.15058 -0.45544,0 -0.0759,-5.3918 0.66921,-9.50783 2.12527,-11.73966 5.86152,-23.55037 11.968844,-37.834964 5.05402,-11.82101 5.60976,-14.22985 5.1893,-22.49303 -0.19078,-3.74913 -0.37056,-5.13291 -0.9715,-7.47782 -1.31077,-5.11472 -3.80196,-9.69117 -7.22665,-13.27576 -4.927244,-5.15728 -11.320044,-8.48195 -18.025654,-9.37449 -3.436853,-0.45745 -4.878683,-0.45649 -8.403465,0.006 -6.85911,0.89916 -13.406382,4.28603 -18.416648,9.52686 -4.665266,4.87995 -7.034154,9.8021 -8.300111,17.24622 -0.420181,2.47077 -0.328413,10.52104 0.157214,13.79158 0.991769,6.67921 2.986023,10.83078 10.862616,22.613394 4.98394,7.45548 6.831193,10.50361 8.399898,13.86054 1.373489,2.93919 2.70644,6.78476 3.131122,9.0333 0.181938,0.9633 0.359146,1.79089 0.393797,1.83911 0.03465,0.0482 0.492691,-0.25308 1.01786,-0.66955 1.58128,-1.25401 3.450453,-1.66981 7.33511,-1.63174 3.734097,0.0366 6.147047,0.52362 8.545567,1.72483 4.56438,2.2859 4.83038,4.82888 0.65727,6.28339 -2.04617,0.71318 -8.366003,0.64807 -11.031674,-0.11365 -2.38885,-0.68262 -4.294445,-1.61121 -5.334194,-2.59933 l -0.782774,-0.74391 -0.114201,4.08547 c -0.06281,2.24701 -0.0925,4.11637 -0.06598,4.15414 0.02653,0.0377 1.105723,-0.1164 2.398213,-0.34259 1.810586,-0.31687 3.211442,-0.37771 6.103076,-0.26504 8.768724,0.34166 15.429254,3.17684 13.992084,5.956 -0.42853,0.82871 -2.43405,1.81338 -4.48425,2.20171 -1.60343,0.30371 -7.01072,0.54357 -8.256801,0.36627 z M 28.313478,74.908506 C 18.513327,72.732036 3.3520307,62.806266 4.2659067,59.165096 c 0.943461,-3.75905 17.2469743,2.48132 25.9437073,9.93028 5.235548,4.48438 4.349682,7.20024 -1.896136,5.81313 z m 97.980192,-7.43158 c -1.10081,-0.59885 -1.21336,-1.08252 -0.54507,-2.34226 2.40024,-4.52449 16.18972,-12.02652 24.85445,-13.52182 4.49694,-0.77604 6.27281,0.33395 4.48234,2.80165 -3.8726,5.33741 -18.5409,12.72947 -26.31422,13.26103 -1.28912,0.0881 -2.06467,0.026 -2.4775,-0.1986 z M 44.45176,43.143846 c -1.705188,-0.48001 -2.798187,-0.99013 -5.390834,-2.51598 -6.353059,-3.738976 -13.683953,-10.556508 -15.762859,-14.65903 -0.794099,-1.567079 -0.826457,-3.099203 -0.07396,-3.501928 2.478853,-1.326642 11.32619,3.604523 18.16691,10.125535 4.201791,4.005415 6.563625,7.385983 6.563625,9.394733 0,1.52086 -1.016611,1.85655 -3.502882,1.15667 z m 70.57438,-4.125716 c -2.21282,-2.21282 3.06707,-12.478156 10.2201,-19.870277 7.99398,-8.261168 11.75158,-6.564515 6.89183,3.111831 -2.01508,4.012269 -5.13251,8.295757 -8.7034,11.958873 -3.20875,3.291619 -5.20012,4.735505 -7.09495,5.144346 -0.62215,0.134243 -0.91016,0.05865 -1.31358,-0.344773 z M 73.596265,25.127826 C 71.650101,23.06429 70.2782,17.861575 70.048323,11.672841 69.511712,-2.7738213 75.670725,-4.2565613 78.127924,9.7277327 c 0.499715,2.8439443 0.563321,8.8926853 0.118406,11.2592683 -0.838895,4.462188 -2.74563,6.160112 -4.650065,4.140825 z" />
</svg>
