<?xml version="1.0" encoding="UTF-8" standalone="no"?>
<svg xmlns="http://www.w3.org/2000/svg" version="1.1" viewBox="0 0 1600 1600" width="2000" height="2000" fill="white" stroke="white" stroke-width="2" opacity="0.3">
  <path d="m 1322.49,565.38 -24.45,-77.91" />
  <path d="m 350.15,501.91 84.03,14.92" />
  <path d="m 882.89,1119.53 -92.77,-73.38" />
  <path d="m 828.55,240.00 108.49,-10.04" />
  <path d="M 995.37,647.54 872.91,562.87" />
  <path d="m 828.55,240.00 24.77,-79.64" />
  <path d="m 1441.76,1055.00 -44.52,-73.79" />
  <path d="m 1167.36,1473.92 -34.76,77.41" />
  <path d="M 198.92,1430.76 167.93,1316.61" />
  <path d="M 600.42,635.34 584.50,757.37" />
  <path d="m 785.76,1455.00 111.56,-16.26" />
  <path d="M 145.31,216.02 44.77,194.86" />
  <path d="m 1308.75,185.78 38.32,128.88" />
  <path d="m 587.94,251.10 184.08,10.79" />
  <path d="m 587.49,1211.88 -1.82,-130.77" />
  <path d="M 167.93,1316.61 101.49,1251.04" />
  <path d="m 1090.78,251.25 132.55,3.32" />
  <path d="m 1563.88,1532.54 -20.98,-67.64" />
  <path d="M 790.12,1046.15 826.37,943.52" />
  <path d="M 606.21,985.80 706.17,953.73" />
  <path d="M 22.51,768.70 180.06,672.10" />
  <path d="m 1043.33,410.94 5.30,-86.02" />
  <path d="M 794.03,472.06 779.09,582.54" />
  <path d="M 584.50,757.37 518.41,907.78" />
  <path d="M 167.93,1316.61 314.53,1335.16" />
  <path d="M 29.89,566.53 170.53,527.94" />
  <path d="m 1278.18,334.12 -38.08,75.83" />
  <path d="m 350.02,1366.29 92.19,45.70" />
  <path d="m 1003.69,1292.99 38.67,45.17" />
  <path d="m 937.05,229.95 100.07,-59.22" />
  <path d="m 1091.83,682.57 -96.45,-35.03" />
  <path d="M 192.60,1138.10 294.91,1082.83" />
  <path d="m 1434.62,37.62 -1.13,96.76" />
  <path d="m 1397.23,981.20 -7.19,-84.55" />
  <path d="m 287.38,1463.85 92.63,58.72" />
  <path d="m 1424.34,1243.65 -35.05,-57.37" />
  <path d="m 1126.64,888.61 173.47,-27.72" />
  <path d="m 1116.25,490.08 123.84,-80.11" />
  <path d="m 524.57,1451.06 -36.46,77.07" />
  <path d="M 937.05,229.95 850.42,346.37" />
  <path d="m 772.02,261.90 78.39,84.47" />
  <path d="M 584.50,757.37 478.84,685.00" />
  <path d="M 82.95,449.51 7.54,443.46" />
  <path d="m 198.92,1430.76 -148.92,5.29" />
  <path d="m 1316.09,1156.53 73.19,29.74" />
  <path d="m 699.50,636.42 -99.07,-1.08" />
  <path d="m 826.37,943.52 80.52,95.44" />
  <path d="m 1401.68,561.85 -79.19,3.52" />
  <path d="m 1323.42,1360.04 -49.54,-61.54" />
  <path d="m 393.80,678.80 85.04,6.19" />
  <path d="m 1042.36,1338.17 86.91,-72.31" />
  <path d="m 1323.42,1360.04 88.94,-11.49" />
  <path d="M 210.02,886.39 409.04,869.32" />
  <path d="m 127.16,314.19 68.58,61.62" />
  <path d="m 1240.09,409.96 57.94,77.50" />
  <path d="m 409.04,869.32 109.36,38.46" />
  <path d="m 1043.33,410.94 119.48,-75.69" />
  <path d="m 1164.26,1387.79 -111.55,86.97" />
  <path d="m 882.89,1119.53 81.45,72.24" />
  <path d="m 779.09,582.54 -79.59,53.88" />
  <path d="m 1518.30,1324.68 24.59,140.21" />
  <path d="M 210.02,886.39 195.94,801.22" />
  <path d="M 584.50,757.37 413.65,783.07" />
  <path d="m 1069.64,1163.73 42.42,-41.05" />
  <path d="m 997.23,1435.75 45.12,-97.58" />
  <path d="m 872.91,562.87 52.63,-73.73" />
  <path d="m 379.25,328.42 -1.13,96.76" />
  <path d="m 1542.90,1464.89 -89.50,-22.14" />
  <path d="m 1594.38,1291.44 -84.26,-94.98" />
  <path d="m 1394.75,422.90 98.18,-114.45" />
  <path d="m 758.17,1280.93 119.11,-34.58" />
  <path d="m 1003.69,1292.99 -83.19,34.01" />
  <path d="m 1470.52,256.47 -65.01,-45.35" />
  <path d="m 409.53,198.39 -122.09,8.56" />
  <path d="M 706.17,953.73 671.43,862.45" />
  <path d="M 195.94,801.22 32.03,912.39" />
  <path d="m 1132.59,1551.34 53.69,29.96" />
  <path d="m 1441.76,1055.00 46.26,-73.43" />
  <path d="m 86.73,94.69 17.00,-81.26" />
  <path d="m 1012.33,36.73 24.79,133.98" />
  <path d="m 1129.28,1265.85 -59.63,-102.12" />
  <path d="m 1125.00,791.39 79.29,-80.70" />
  <path d="M 455.60,291.37 379.25,328.42" />
  <path d="m 387.19,22.34 81.64,1.77" />
  <path d="M 794.03,472.06 882.23,423.06" />
  <path d="m 105.25,1534.43 -55.24,-98.38" />
  <path d="m 1278.18,334.12 68.89,-19.45" />
  <path d="m 1347.07,314.67 47.67,108.22" />
  <path d="m 1484.73,736.67 65.02,-56.57" />
  <path d="m 1308.75,185.78 40.06,-100.54" />
  <path d="m 300.39,1237.35 -70.41,12.94" />
  <path d="m 294.91,1082.83 97.83,-3.37" />
  <path d="m 277.82,1002.97 17.08,79.86" />
  <path d="M 833.96,807.26 671.43,862.45" />
  <path d="M 111.66,1065.28 61.89,1017.09" />
  <path d="m 964.18,840.63 47.37,112.48" />
  <path d="m 882.89,1119.53 113.92,-41.28" />
  <path d="m 1151.13,163.86 72.94,-72.57" />
  <path d="m 1493.12,1126.90 101.69,14.32" />
  <path d="m 499.04,136.41 88.90,114.68" />
  <path d="m 964.18,840.63 29.47,-90.00" />
  <path d="m 1348.67,1033.81 -97.22,-67.32" />
  <path d="m 127.28,965.31 -95.25,-52.91" />
  <path d="m 1008.71,516.27 96.89,64.32" />
  <path d="m 1492.93,308.44 -22.40,-51.97" />
  <path d="m 1043.33,410.94 -117.78,78.19" />
  <path d="M 187.67,478.24 170.53,527.94" />
  <path d="m 1502.54,406.98 -20.41,80.87" />
  <path d="M 833.96,807.26 891.05,716.33" />
  <path d="m 1090.78,251.25 -53.65,-80.53" />
  <path d="m 534.18,1340.80 -91.96,71.19" />
  <path d="m 1241.68,803.54 104.69,-95.92" />
  <path d="m 1162.82,335.24 60.50,-80.66" />
  <path d="m 1333.70,1554.84 -10.27,-194.80" />
  <path d="m 58.52,1352.26 109.40,-35.65" />
  <path d="M 465.94,1248.60 476.15,1097.17" />
  <path d="m 1424.34,1243.65 93.96,81.02" />
  <path d="m 1298.03,487.46 -97.09,12.48" />
  <path d="m 704.89,402.11 89.14,69.94" />
  <path d="m 897.33,1438.73 25.11,129.80" />
  <path d="M 707.77,97.10 862.49,37.45" />
  <path d="m 882.23,423.06 43.32,66.07" />
  <path d="m 514.06,593.40 86.36,41.93" />
  <path d="M 264.14,748.11 393.80,678.80" />
  <path d="M 180.06,672.10 170.53,527.94" />
  <path d="m 1116.25,490.08 84.69,9.87" />
  <path d="M 891.05,716.33 872.91,562.87" />
  <path d="m 1441.76,1055.00 -52.46,131.27" />
  <path d="M 264.14,748.11 180.06,672.10" />
  <path d="m 897.33,1438.73 99.90,-2.98" />
  <path d="M 248.12,67.86 103.74,13.43" />
  <path d="m 891.05,716.33 104.32,-68.79" />
  <path d="M 584.50,757.37 751.35,740.12" />
  <path d="m 1488.02,981.56 27.97,-76.72" />
  <path d="M 32.03,912.39 22.51,768.70" />
  <path d="m 1502.54,406.98 -107.79,15.91" />
  <path d="m 476.15,1097.17 -130.77,68.22" />
  <path d="m 1167.36,1473.92 166.33,80.91" />
  <path d="m 534.18,1340.80 -9.61,110.26" />
  <path d="m 964.35,1191.77 105.29,-28.03" />
  <path d="m 198.65,999.10 -71.36,-33.78" />
  <path d="m 1129.28,1265.85 34.98,121.93" />
  <path d="m 455.60,291.37 117.55,-6.71" />
  <path d="m 373.24,972.99 19.49,106.45" />
  <path d="M 318.02,564.65 350.15,501.91" />
  <path d="m 1572.16,359.24 7.22,-112.60" />
  <path d="m 1347.07,314.67 123.45,-58.20" />
  <path d="M 1125.00,791.39 964.18,840.63" />
  <path d="m 1011.56,953.11 65.33,48.75" />
  <path d="M 350.02,1366.29 314.53,1335.16" />
  <path d="M 318.02,564.65 253.39,476.58" />
  <path d="m 1407.16,685.24 -60.78,22.36" />
  <path d="M 1011.56,953.11 906.89,1038.97" />
  <path d="m 1515.99,904.83 -89.36,-96.81" />
  <path d="M 393.80,678.80 514.06,593.40" />
  <path d="m 618.33,1302.23 -84.15,38.56" />
  <path d="m 1091.83,682.57 13.77,-101.97" />
  <path d="m 616.83,125.90 -117.79,10.51" />
  <path d="M 573.16,284.66 476.02,395.70" />
  <path d="m 1164.26,1387.79 3.09,86.13" />
  <path d="m 922.45,1568.54 79.62,-15.89" />
  <path d="m 127.16,314.19 85.24,-46.38" />
  <path d="m 383.83,1281.35 -83.44,-44.00" />
  <path d="m 1204.30,710.68 142.07,-3.07" />
  <path d="m 1129.28,1265.85 144.59,32.64" />
  <path d="M 1426.63,808.02 1346.38,707.61" />
  <path d="m 877.29,1246.34 87.05,-54.56" />
  <path d="m 1323.42,1360.04 -159.15,27.74" />
  <path d="m 1048.64,324.91 42.14,-73.66" />
  <path d="M 409.04,869.32 195.94,801.22" />
  <path d="m 1105.60,580.60 95.33,-80.65" />
  <path d="m 1563.88,1532.54 -141.36,-4.91" />
  <path d="M 779.09,582.54 872.91,562.87" />
  <path d="m 1426.63,808.02 -126.50,52.86" />
  <path d="m 268.53,1556.35 18.84,-92.50" />
  <path d="m 314.53,1335.16 69.29,-53.80" />
  <path d="m 248.12,67.86 117.05,30.63" />
  <path d="m 380.01,1522.58 108.08,5.56" />
  <path d="m 127.28,965.31 82.73,-78.91" />
  <path d="m 1518.30,1324.68 76.08,-33.24" />
  <path d="M 785.76,1455.00 758.17,1280.93" />
  <path d="m 1407.16,685.24 77.56,51.42" />
  <path d="m 826.37,943.52 137.81,-102.89" />
  <path d="M 671.43,862.45 584.50,757.37" />
  <path d="m 1008.71,516.27 -13.33,131.26" />
  <path d="m 1246.34,1111.51 -117.05,154.34" />
  <path d="m 1251.45,966.49 48.67,-105.60" />
  <path d="m 1287.58,25.90 61.23,59.34" />
  <path d="m 1397.23,981.20 -48.55,52.60" />
  <path d="m 657.76,1225.59 -70.26,-13.70" />
  <path d="M 706.17,953.73 826.37,943.52" />
  <path d="m 524.57,1451.06 36.24,142.97" />
  <path d="M 790.12,1046.15 681.22,1106.45" />
  <path d="M 264.14,748.11 195.94,801.22" />
  <path d="m 1091.83,682.57 33.17,108.81" />
  <path d="m 1076.89,1001.86 90.99,34.55" />
  <path d="M 180.06,672.10 318.02,564.65" />
  <path d="m 12.20,635.91 167.85,36.19" />
  <path d="m 1316.09,1156.53 32.57,-122.72" />
  <path d="m 1251.45,966.49 -5.10,145.02" />
  <path d="m 606.69,1471.84 157.77,88.42" />
  <path d="m 677.40,1408.58 108.36,46.42" />
  <path d="M 677.40,1408.58 758.17,1280.93" />
  <path d="m 534.18,1340.80 143.21,67.77" />
  <path d="m 606.69,1471.84 70.70,-63.26" />
  <path d="m 1484.73,736.67 -58.10,71.35" />
  <path d="m 1230.28,604.12 92.21,-38.74" />
  <path d="m 365.18,98.49 44.35,99.89" />
  <path d="M 12.20,635.91 29.89,566.53" />
  <path d="m 1167.89,1036.42 83.55,-69.93" />
  <path d="M 655.34,340.56 573.16,284.66" />
  <path d="m 585.66,1081.11 -90.47,-73.07" />
  <path d="M 170.53,527.94 82.95,449.51" />
  <path d="m 1008.71,516.27 -83.15,-27.13" />
  <path d="m 287.43,206.95 -142.11,9.07" />
  <path d="m 545.73,429.86 -111.55,86.97" />
  <path d="m 1223.33,254.58 85.42,-68.79" />
  <path d="m 606.69,1471.84 -82.12,-20.78" />
  <path d="m 545.73,429.86 3.09,86.13" />
  <path d="M 253.39,476.58 378.12,425.18" />
  <path d="m 620.46,54.40 -3.63,71.50" />
  <path d="m 383.83,1281.35 82.10,-32.75" />
  <path d="M 704.89,402.11 545.73,429.86" />
  <path d="m 1008.71,516.27 107.53,-26.19" />
  <path d="M 699.50,636.42 666.14,537.54" />
  <path d="m 1246.34,1111.51 69.75,45.02" />
  <path d="m 1502.54,406.98 69.61,-47.73" />
  <path d="m 1230.28,604.12 -29.33,-104.17" />
  <path d="M 655.34,340.56 772.02,261.90" />
  <path d="m 86.73,94.69 83.64,37.41" />
  <path d="m 964.18,840.63 162.46,47.98" />
  <path d="m 657.76,1225.59 68.18,-50.51" />
  <path d="m 1048.64,324.91 -60.49,-8.47" />
  <path d="m 476.15,1097.17 -83.40,-17.72" />
  <path d="m 1394.75,422.90 -96.71,64.56" />
  <path d="m 585.66,1081.11 20.54,-95.30" />
  <path d="m 1577.49,27.03 -27.97,114.90" />
  <path d="M 192.60,1138.10 101.49,1251.04" />
  <path d="M 882.23,423.06 988.15,316.44" />
  <path d="m 195.74,375.81 -8.06,102.42" />
  <path d="m 1223.33,254.58 -72.19,-90.71" />
  <path d="m 1549.75,680.09 -67.63,-192.23" />
  <path d="m 1069.64,1163.73 -65.95,129.25" />
  <path d="m 198.65,999.10 79.17,3.86" />
  <path d="M 758.17,1280.93 725.94,1175.07" />
  <path d="M 413.65,783.07 264.14,748.11" />
  <path d="m 548.83,515.99 117.30,21.54" />
  <path d="M 833.96,807.26 751.35,740.12" />
  <path d="m 365.18,98.49 22.01,-76.15" />
  <path d="m 1510.12,1196.45 -85.77,47.20" />
  <path d="m 413.65,783.07 -4.61,86.24" />
  <path d="m 83.79,1143.90 27.86,-78.61" />
  <path d="m 1493.12,1126.90 16.99,69.54" />
  <path d="m 618.33,1302.23 139.83,-21.30" />
  <path d="M 585.66,1081.11 476.15,1097.17" />
  <path d="m 1204.30,710.68 25.97,-106.55" />
  <path d="m 345.38,1165.39 -50.46,-82.56" />
  <path d="m 1112.07,1122.68 134.27,-11.16" />
  <path d="m 518.41,907.78 -23.22,100.24" />
  <path d="m 1333.70,1554.84 88.82,-27.21" />
  <path d="M 545.73,429.86 655.34,340.56" />
  <path d="m 1433.48,134.38 -84.66,-49.13" />
  <path d="m 1390.04,896.65 125.95,8.18" />
  <path d="m 1493.12,1126.90 -51.36,-71.90" />
  <path d="m 1422.52,1527.63 30.86,-84.88" />
  <path d="M 681.22,1106.45 706.17,953.73" />
  <path d="M 287.43,206.95 379.25,328.42" />
  <path d="m 1112.07,1122.68 55.82,-86.25" />
  <path d="M 751.35,740.12 699.50,636.42" />
  <path d="m 1470.52,256.47 108.85,-9.82" />
  <path d="m 198.65,999.10 -86.98,66.18" />
  <path d="m 248.12,67.86 39.30,139.09" />
  <path d="m 600.42,635.34 65.71,-97.79" />
  <path d="m 1453.39,1442.74 -41.02,-94.19" />
  <path d="m 1287.58,25.90 147.03,11.71" />
  <path d="m 681.22,1106.45 -95.55,-25.34" />
  <path d="m 1037.12,170.72 114.01,-6.85" />
  <path d="m 350.15,501.91 27.97,-76.72" />
  <path d="M 882.89,1119.53 725.94,1175.07" />
  <path d="m 1125.00,791.39 116.67,12.14" />
  <path d="m 920.50,1327.01 -43.20,-80.67" />
  <path d="m 442.22,1412.00 45.88,116.14" />
  <path d="m 476.02,395.70 -97.89,29.48" />
  <path d="m 167.93,1316.61 62.05,-66.31" />
  <path d="m 534.18,1340.80 -68.24,-92.20" />
  <path d="m 616.83,125.90 90.93,-28.80" />
  <path d="M 988.15,316.44 937.05,229.95" />
  <path d="m 1390.04,896.65 -89.91,-35.76" />
  <path d="M 704.89,402.11 655.34,340.56" />
  <path d="M 499.04,136.41 468.84,24.12" />
  <path d="m 920.50,1327.01 -23.16,111.72" />
  <path d="M 379.25,328.42 195.74,375.81" />
  <path d="m 253.39,476.58 -65.71,1.65" />
  <path d="M 606.21,985.80 518.41,907.78" />
  <path d="m 906.89,1038.97 -23.99,80.55" />
  <path d="M 828.55,240.00 707.77,97.10" />
  <path d="M 548.83,515.99 514.06,593.40" />
  <path d="M 318.02,564.65 383.54,594.71" />
  <path d="m 83.79,1143.90 108.80,-5.80" />
  <path d="M 993.65,750.62 891.05,716.33" />
  <path d="M 170.37,132.11 248.12,67.86" />
  <path d="m 764.46,1560.27 21.30,-105.26" />
  <path d="m 383.54,594.71 10.25,84.08" />
  <path d="M 1549.75,680.09 1401.68,561.85" />
  <path d="M 229.98,1250.29 192.60,1138.10" />
  <path d="M 772.02,261.90 616.83,125.90" />
  <path d="M 212.40,267.80 379.25,328.42" />
  <path d="m 862.49,37.45 -9.16,122.89" />
  <path d="m 725.94,1175.07 -44.72,-68.61" />
  <path d="m 453.37,224.53 45.66,-88.11" />
  <path d="m 465.94,1248.60 121.55,-36.71" />
  <path d="m 300.39,1237.35 44.98,-71.95" />
  <path d="M 195.94,801.22 22.51,768.70" />
  <path d="M 964.18,840.63 833.96,807.26" />
  <path d="m 50.00,1436.05 8.52,-83.78" />
  <path d="M 545.73,429.86 476.02,395.70" />
  <path d="m 1405.51,211.11 27.97,-76.72" />
  <path d="M 82.95,449.51 127.16,314.19" />
  <path d="m 993.65,750.62 98.17,-68.04" />
  <path d="m 850.42,346.37 31.80,76.69" />
  <path d="m 1162.82,335.24 115.35,-1.11" />
  <path d="m 287.38,1463.85 -88.45,-33.09" />
  <path d="m 826.37,943.52 7.59,-136.25" />
  <path d="m 1308.75,185.78 96.76,25.32" />
  <path d="m 618.33,1302.23 39.42,-76.64" />
  <path d="m 1076.89,1001.86 49.75,-113.25" />
  <path d="m 373.24,972.99 -95.42,29.97" />
  <path d="m 1116.25,490.08 -72.91,-79.13" />
  <path d="M 666.14,537.54 704.89,402.11" />
  <path d="m 495.19,1008.03 -102.44,71.41" />
  <path d="m 1012.33,36.73 211.75,54.55" />
  <path d="M 518.41,907.78 671.43,862.45" />
  <path d="M 268.53,1556.35 105.25,1534.43" />
  <path d="m 1572.16,359.24 -79.22,-50.80" />
  <path d="m 145.31,216.02 67.09,51.78" />
  <path d="M 751.35,740.12 872.91,562.87" />
  <path d="m 764.46,1560.27 157.98,8.27" />
  <path d="M 1594.82,1141.23 1553.03,1026.92" />
  <path d="m 882.23,423.06 161.10,-12.11" />
  <path d="m 287.38,1463.85 62.64,-97.55" />
  <path d="m 1273.87,1298.50 42.21,-141.96" />
  <path d="M 573.16,284.66 587.94,251.10" />
  <path d="m 1553.03,1026.92 -65.01,-45.35" />
  <path d="m 383.54,594.71 50.64,-77.88" />
  <path d="m 1563.88,1532.54 -53.48,59.53" />
  <path d="M 170.37,132.11 145.31,216.02" />
  <path d="m 455.60,291.37 -2.23,-66.84" />
  <path d="m 1401.68,561.85 80.43,-74.00" />
  <path d="m 1002.07,1552.64 50.64,-77.88" />
  <path d="M 7.54,443.46 29.89,566.53" />
  <path d="m 1300.12,860.88 -58.44,-57.34" />
  <path d="m 996.82,1078.25 80.06,-76.38" />
  <path d="M 704.89,402.11 850.42,346.37" />
  <path d="m 1401.68,561.85 5.48,123.38" />
  <path d="M 127.28,965.31 61.89,1017.09" />
  <path d="m 1224.08,91.29 124.73,-6.04" />
  <path d="m 996.82,1078.25 115.24,44.43" />
  <path d="m 1549.52,141.94 -116.03,-7.55" />
  <path d="m 1412.36,1348.55 11.98,-104.89" />
  <path d="M 600.42,635.34 478.84,685.00" />
  <path d="m 997.23,1435.75 55.48,39.00" />
  <path d="m 409.04,869.32 -35.79,103.67" />
  <path d="M 453.37,224.53 409.53,198.39" />
  <path d="M 1012.33,36.73 853.32,160.35" />
  <path d="m 772.02,261.90 56.52,-21.89" />
  <path d="M 101.49,1251.04 -5.17,1141.23" />
  <path d="M 1701.49,1251.04 1594.82,1141.23" />
  <path d="M -27.84,359.24 7.54,443.46" />
  <path d="m 620.46,1654.40 -59.65,-60.36" />
  <path d="m 268.53,1556.35 -164.79,57.07" />
  <path d="m 560.81,1594.04 -91.97,30.07" />
  <path d="m -5.17,1141.23 88.97,2.67" />
  <path d="m 380.01,-77.41 7.17,99.76" />
  <path d="m 380.01,1522.58 7.17,99.76" />
  <path d="M 560.81,-5.95 468.84,24.12" />
  <path d="m 1549.75,680.09 62.44,-44.18" />
  <path d="m 1012.33,36.73 120.26,-85.39" />
  <path d="m 32.03,912.39 -116.03,-7.55" />
  <path d="m 1553.03,1026.92 108.85,-9.82" />
  <path d="M -46.96,1026.92 61.89,1017.09" />
  <path d="m 707.77,1697.10 56.69,-136.82" />
  <path d="m 1549.52,141.94 137.20,-47.24" />
  <path d="m 862.49,1637.45 59.95,-68.90" />
  <path d="M -50.24,680.09 12.20,635.91" />
  <path d="m 1703.74,13.43 -139.85,-80.88" />
  <path d="m 620.46,54.40 -13.77,-182.55" />
  <path d="m 1579.38,246.64 147.77,67.55" />
  <path d="M 620.46,1654.40 606.69,1471.84" />
  <path d="m 1644.77,194.86 -65.38,51.78" />
  <path d="M 1510.40,-7.92 1577.49,27.03" />
  <path d="m 1012.33,1636.73 120.26,-85.39" />
  <path d="m 248.12,67.86 20.41,-111.50" />
  <path d="m 1658.52,1352.26 -64.13,-60.82" />
  <path d="m 1594.38,1291.44 107.10,-40.39" />
  <path d="M 248.12,1667.85 268.53,1556.35" />
  <path d="m 862.49,37.45 59.95,-68.90" />
  <path d="m 1510.40,1592.07 67.09,34.96" />
  <path d="m 468.84,24.12 19.26,-95.97" />
  <path d="M 620.46,54.40 560.81,-5.95" />
  <path d="m 1186.29,-18.69 101.29,44.60" />
  <path d="M 1510.40,-7.92 1434.62,37.62" />
  <path d="m 1482.12,487.85 125.41,-44.39" />
  <path d="m 1002.07,-47.35 10.25,84.08" />
  <path d="m 1333.70,1554.84 -46.11,71.05" />
  <path d="m 1632.03,912.39 -116.03,-7.55" />
  <path d="m 1186.29,-18.69 37.79,109.99" />
  <path d="m 1333.70,-45.15 -46.11,71.05" />
  <path d="m 1510.40,1592.07 -75.78,45.54" />
  <path d="m 1186.29,1581.30 101.29,44.60" />
  <path d="M -5.61,1291.44 101.49,1251.04" />
  <path d="M 1703.74,13.43 1577.49,27.03" />
  <path d="M -115.26,736.67 22.51,768.70" />
  <path d="m 468.84,1624.12 19.26,-95.97" />
  <path d="m 44.77,194.86 -95.25,-52.91" />
  <path d="M 103.74,13.43 -22.50,27.03" />
  <path d="m 1002.07,1552.64 10.25,84.08" />
  <path d="M 268.53,-43.64 103.74,13.43" />
  <path d="m 1563.88,1532.54 141.36,1.88" />
  <path d="m 707.77,97.10 56.69,-136.82" />
  <path d="m 1542.90,1464.89 107.10,-28.84" />
  <path d="m 44.77,194.86 -65.38,51.78" />
  <path d="m 1484.73,736.67 137.77,32.02" />
  <path d="m -20.61,246.64 147.77,67.55" />
  <path d="M -57.09,1464.89 50.00,1436.05" />
  <path d="M -117.87,487.85 7.54,443.46" />
  <path d="M -50.47,141.94 86.73,94.69" />
  <path d="m 58.52,1352.26 -64.13,-60.82" />
  <path d="m -36.11,1532.54 141.36,1.88" />
  <path d="m 1572.16,359.24 35.38,84.21" />
  <path d="m 1594.82,1141.23 88.97,2.67" />
  <path d="m 1186.29,1581.30 37.79,109.99" />
  <path d="m 103.74,1613.43 1.51,-78.99" />
  <path d="m 103.74,13.43 1.51,-78.99" />
  <path d="m 1644.77,194.86 -95.25,-52.91" />
  <circle r="5" cx="514.49" cy="593.99" />
  <circle r="5" cx="1594.30" cy="1141.13" />
  <circle r="5" cx="301.24" cy="1237.52" />
  <circle r="5" cx="764.26" cy="1559.93" />
  <circle r="5" cx="681.86" cy="1106.74" />
  <circle r="5" cx="534.08" cy="1341.46" />
  <circle r="5" cx="61.89" cy="1016.34" />
  <circle r="5" cx="906.38" cy="1039.08" />
  <circle r="5" cx="1484.31" cy="737.08" />
  <circle r="5" cx="476.25" cy="1097.66" />
  <circle r="5" cx="998.23" cy="1436.33" />
  <circle r="5" cx="188.42" cy="478.53" />
  <circle r="5" cx="794.59" cy="471.85" />
  <circle r="5" cx="43.79" cy="195.38" />
  <circle r="5" cx="456.51" cy="290.77" />
  <circle r="5" cx="83.12" cy="449.40" />
  <circle r="5" cx="791.10" cy="1047.02" />
  <circle r="5" cx="351.19" cy="502.32" />
  <circle r="5" cx="1105.42" cy="580.36" />
  <circle r="5" cx="1166.81" cy="1474.88" />
  <circle r="5" cx="394.75" cy="678.18" />
  <circle r="5" cx="937.00" cy="230.97" />
  <circle r="5" cx="1563.29" cy="1532.45" />
  <circle r="5" cx="1049.30" cy="325.39" />
  <circle r="5" cx="1405.51" cy="211.86" />
  <circle r="5" cx="525.00" cy="1451.45" />
  <circle r="5" cx="364.93" cy="97.54" />
  <circle r="5" cx="706.43" cy="954.41" />
  <circle r="5" cx="1510.40" cy="1592.07" />
  <circle r="5" cx="709.06" cy="96.87" />
  <circle r="5" cx="212.97" cy="267.05" />
  <circle r="5" cx="1402.09" cy="562.72" />
  <circle r="5" cx="1116.91" cy="490.29" />
  <circle r="5" cx="1433.48" cy="134.00" />
  <circle r="5" cx="751.82" cy="739.92" />
  <circle r="5" cx="1397.75" cy="982.00" />
  <circle r="5" cx="1593.92" cy="1291.57" />
  <circle r="5" cx="573.03" cy="285.08" />
  <circle r="5" cx="1133.17" cy="1551.99" />
  <circle r="5" cx="413.50" cy="782.81" />
  <circle r="5" cx="1488.02" cy="982.32" />
  <circle r="5" cx="1553.03" cy="1026.92" />
  <circle r="5" cx="317.12" cy="1336.17" />
  <circle r="5" cx="666.03" cy="538.13" />
  <circle r="5" cx="112.25" cy="1065.54" />
  <circle r="5" cx="1042.45" cy="1338.45" />
  <circle r="5" cx="1092.33" cy="682.73" />
  <circle r="5" cx="1407.53" cy="685.10" />
  <circle r="5" cx="964.59" cy="841.02" />
  <circle r="5" cx="1008.94" cy="517.29" />
  <circle r="5" cx="585.48" cy="1080.28" />
  <circle r="5" cx="479.74" cy="685.13" />
  <circle r="5" cx="199.19" cy="1430.28" />
  <circle r="5" cx="584.35" cy="757.49" />
  <circle r="5" cx="921.88" cy="1568.25" />
  <circle r="5" cx="267.93" cy="1556.58" />
  <circle r="5" cx="1204.04" cy="710.79" />
  <circle r="5" cx="32.41" cy="913.15" />
  <circle r="5" cx="995.57" cy="647.45" />
  <circle r="5" cx="605.89" cy="985.78" />
  <circle r="5" cx="170.05" cy="527.58" />
  <circle r="5" cx="384.06" cy="595.06" />
  <circle r="5" cx="1004.28" cy="1293.83" />
  <circle r="5" cx="7.75" cy="444.59" />
  <circle r="5" cx="671.28" cy="862.19" />
  <circle r="5" cx="655.87" cy="341.16" />
  <circle r="5" cx="1288.34" cy="25.90" />
  <circle r="5" cx="1493.38" cy="308.49" />
  <circle r="5" cx="1037.54" cy="170.87" />
  <circle r="5" cx="826.63" cy="944.21" />
  <circle r="5" cx="1230.50" cy="604.15" />
  <circle r="5" cx="1317.62" cy="1157.76" />
  <circle r="5" cx="1482.27" cy="488.15" />
  <circle r="5" cx="1246.18" cy="1112.03" />
  <circle r="5" cx="499.79" cy="137.23" />
  <circle r="5" cx="882.95" cy="1119.59" />
  <circle r="5" cx="891.34" cy="717.20" />
  <circle r="5" cx="1348.61" cy="1034.54" />
  <circle r="5" cx="409.34" cy="869.75" />
  <circle r="5" cx="545.41" cy="430.54" />
  <circle r="5" cx="828.80" cy="239.86" />
  <circle r="5" cx="779.89" cy="582.77" />
  <circle r="5" cx="548.97" cy="516.75" />
  <circle r="5" cx="1322.44" cy="565.39" />
  <circle r="5" cx="253.69" cy="476.73" />
  <circle r="5" cx="345.09" cy="1165.70" />
  <circle r="5" cx="1091.59" cy="250.24" />
  <circle r="5" cx="1129.39" cy="1266.62" />
  <circle r="5" cx="1390.19" cy="897.72" />
  <circle r="5" cx="897.40" cy="1438.44" />
  <circle r="5" cx="1152.27" cy="164.24" />
  <circle r="5" cx="87.03" cy="94.54" />
  <circle r="5" cx="1348.06" cy="85.62" />
  <circle r="5" cx="1252.23" cy="968.02" />
  <circle r="5" cx="167.82" cy="1316.89" />
  <circle r="5" cx="1333.70" cy="1555.60" />
  <circle r="5" cx="1224.08" cy="254.95" />
  <circle r="5" cx="850.71" cy="346.50" />
  <circle r="5" cx="997.85" cy="1078.39" />
  <circle r="5" cx="469.05" cy="23.77" />
  <circle r="5" cx="1163.69" cy="335.54" />
  <circle r="5" cx="1579.38" cy="245.88" />
  <circle r="5" cy="1435.91" cx="51.27" />
  <circle r="5" cx="853.92" cy="159.95" />
  <circle r="5" cx="964.21" cy="1191.40" />
  <circle r="5" cx="1224.08" cy="91.67" />
  <circle r="5" cx="620.59" cy="53.84" />
  <circle r="5" cx="127.75" cy="314.96" />
  <circle r="5" cx="146.22" cy="215.64" />
  <circle r="5" cx="210.15" cy="886.75" />
  <circle r="5" cx="1111.62" cy="1122.61" />
  <circle r="5" cx="453.50" cy="224.88" />
  <circle r="5" cx="105.63" cy="1535.56" />
  <circle r="5" cx="317.78" cy="564.16" />
  <circle r="5" cx="1069.67" cy="1165.32" />
  <circle r="5" cx="373.44" cy="974.82" />
  <circle r="5" cx="785.48" cy="1455.32" />
  <circle r="5" cx="1454.07" cy="1443.13" />
  <circle r="5" cx="192.38" cy="1140.00" />
  <circle r="5" cx="1300.23" cy="861.81" />
  <circle r="5" cx="988.17" cy="316.25" />
  <circle r="5" cx="704.78" cy="402.36" />
  <circle r="5" cx="699.44" cy="636.22" />
  <circle r="5" cx="1052.66" cy="1474.13" />
  <circle r="5" cx="1426.86" cy="808.51" />
  <circle r="5" cx="1435.75" cy="38.75" />
  <circle r="5" cx="518.96" cy="907.92" />
  <circle r="5" cx="1515.99" cy="904.46" />
  <circle r="5" cx="264.20" cy="748.04" />
  <circle r="5" cx="85.04" cy="1143.85" />
  <circle r="5" cx="758.22" cy="1280.98" />
  <circle r="5" cx="677.16" cy="1408.73" />
  <circle r="5" cx="1412.87" cy="1348.64" />
  <circle r="5" cx="180.13" cy="671.50" />
  <circle r="5" cx="103.81" cy="12.90" />
  <circle r="5" cx="1502.85" cy="407.71" />
  <circle r="5" cx="1164.16" cy="1387.57" />
  <circle r="5" cx="920.93" cy="1326.57" />
  <circle r="5" cx="288.34" cy="207.03" />
  <circle r="5" cx="1441.60" cy="1055.71" />
  <circle r="5" cx="384.02" cy="1281.36" />
  <circle r="5" cx="378.12" cy="424.80" />
  <circle r="5" cx="1518.70" cy="1325.58" />
  <circle r="5" cx="442.61" cy="1412.14" />
  <circle r="5" cx="409.18" cy="197.90" />
  <circle r="5" cx="1002.77" cy="1553.13" />
  <circle r="5" cx="295.57" cy="1083.30" />
  <circle r="5" cx="393.47" cy="1080.28" />
  <circle r="5" cx="1297.86" cy="488.15" />
  <circle r="5" cx="1394.87" cy="422.94" />
  <circle r="5" cx="588.26" cy="250.82" />
  <circle r="5" cx="1242.26" cy="803.80" />
  <circle r="5" cx="772.40" cy="262.04" />
  <circle r="5" cx="1278.08" cy="334.47" />
  <circle r="5" cx="195.64" cy="376.70" />
  <circle r="5" cx="1389.06" cy="1186.49" />
  <circle r="5" cx="476.39" cy="395.70" />
  <circle r="5" cx="617.99" cy="1302.91" />
  <circle r="5" cx="1125.99" cy="888.64" />
  <circle r="5" cx="994.07" cy="751.44" />
  <circle r="5" cx="30.20" cy="567.00" />
  <circle r="5" cx="1549.90" cy="142.69" />
  <circle r="5" cx="560.73" cy="1593.98" />
  <circle r="5" cx="170.88" cy="132.62" />
  <circle r="5" cx="1470.52" cy="256.47" />
  <circle r="5" cx="278.19" cy="1004.30" />
  <circle r="5" cx="925.82" cy="489.49" />
  <circle r="5" cx="606.27" cy="1471.48" />
  <circle r="5" cx="657.30" cy="1225.42" />
  <circle r="5" cx="1347.48" cy="314.88" />
  <circle r="5" cx="495.52" cy="1009.22" />
  <circle r="5" cx="1322.91" cy="1360.36" />
  <circle r="5" cx="466.80" cy="1249.61" />
  <circle r="5" cx="1542.89" cy="1465.06" />
  <circle r="5" cx="487.58" cy="1528.56" />
  <circle r="5" cx="58.96" cy="1352.42" />
  <circle r="5" cx="349.62" cy="1367.54" />
  <circle r="5" cx="387.61" cy="22.70" />
  <circle r="5" cx="878.03" cy="1247.34" />
  <circle r="5" cx="199.19" cy="999.39" />
  <circle r="5" cx="196.54" cy="802.84" />
  <circle r="5" cx="101.29" cy="1251.50" />
  <circle r="5" cx="588.13" cy="1211.81" />
  <circle r="5" cx="1572.38" cy="359.86" />
  <circle r="5" cx="378.80" cy="328.49" />
  <circle r="5" cx="1510.01" cy="1196.69" />
  <circle r="5" cx="1167.56" cy="1036.81" />
  <circle r="5" cx="1423.45" cy="1527.05" />
  <circle r="5" cx="380.62" cy="1524.02" />
  <circle r="5" cx="12.82" cy="635.95" />
  <circle r="5" cx="1424.52" cy="1244.40" />
  <circle r="5" cx="872.63" cy="563.79" />
  <circle r="5" cx="1274.53" cy="1299.13" />
  <circle r="5" cx="1240.39" cy="410.91" />
  <circle r="5" cx="601.08" cy="635.42" />
  <circle r="5" cx="1124.67" cy="791.50" />
  <circle r="5" cx="1044.22" cy="411.18" />
  <circle r="5" cx="1550.08" cy="679.25" />
  <circle r="5" cx="726.47" cy="1175.91" />
  <circle r="5" cx="1347.30" cy="707.85" />
  <circle r="5" cx="434.04" cy="517.02" />
  <circle r="5" cx="229.43" cy="1250.75" />
  <circle r="5" cx="1077.23" cy="1002.41" />
  <circle r="5" cx="127.89" cy="965.31" />
  <circle r="5" cx="23.81" cy="769.20" />
  <circle r="5" cx="288.01" cy="1464.30" />
  <circle r="5" cx="1200.84" cy="500.45" />
  <circle r="5" cx="833.43" cy="807.38" />
  <circle r="5" cx="248.27" cy="68.08" />
  <circle r="5" cx="617.12" cy="125.20" />
  <circle r="5" cx="1494.13" cy="1127.90" />
  <circle r="5" cx="1012.81" cy="36.60" />
  <circle r="5" cx="862.47" cy="38.07" />
  <circle r="5" cx="883.05" cy="423.21" />
  <circle r="5" cx="1011.08" cy="952.90" />
  <circle r="5" cx="1187.88" cy="1582.72" />
  <circle r="5" cx="1308.52" cy="185.41" />
  <circle r="5" cx="1578.63" cy="28.55" />
</svg>
