<svg xmlns="http://www.w3.org/2000/svg" xmlns:xlink="http://www.w3.org/1999/xlink" viewBox="0 0 195 135" width="585" height="405" version="1.1">
  <style>
    @import url('https://fonts.googleapis.com/css?family=Lato');
    svg { font-family: Lato, sans-serif }
  </style>

  <rect x="0" y="0" width="85" height="10" fill="#bd582c" />
  <text x="42.5" y="7.5" font-size="8" text-anchor="middle" fill="white">MutualExclusion</text>

  <rect x="0" y="50" width="85" height="10" fill="#bd582c" />
  <text x="42.5" y="57.5" font-size="8" text-anchor="middle" fill="white">LeaderElection</text>

  <rect x="15" y="65" width="70" height="10" fill="#8181ff" />
  <text x="50" y="72.5" font-size="8" text-anchor="middle" fill="white">YoYo</text>

  <rect x="15" y="80" width="70" height="10" fill="#8181ff" />
  <text x="50" y="87.5" font-size="8" text-anchor="middle" fill="white">Raft</text>

  <rect x="15" y="95" width="70" height="10" fill="#8181ff" />
  <text x="50" y="102.5" font-size="8" text-anchor="middle" fill="white">HirschbergSinclair</text>

  <rect x="110" y="25" width="85" height="10" fill="#bd582c" />
  <text x="152.5" y="32.5" font-size="8" text-anchor="middle" fill="white">Id</text>

  <rect x="125" y="40" width="70" height="10" fill="#8181ff" />
  <text x="160" y="47.5" font-size="8" text-anchor="middle" fill="white">RandomIntId</text>

  <rect x="110" y="65" width="85" height="10" fill="#bd582c" />
  <text x="152.5" y="72.5" font-size="8" text-anchor="middle" fill="white">Architecture</text>

  <rect x="125" y="80" width="70" height="10" fill="#8181ff" />
  <text x="160" y="87.5" font-size="8" text-anchor="middle" fill="white">P2P</text>

  <rect x="125" y="95" width="70" height="10" fill="#8181ff" />
  <text x="160" y="102.5" font-size="8" text-anchor="middle" fill="white">Ring</text>

  <rect x="125" y="110" width="70" height="10" fill="#8181ff" />
  <text x="160" y="117.5" font-size="8" text-anchor="middle" fill="white">Client–Server</text>

  <rect x="125" y="125" width="70" height="10" fill="#8181ff" />
  <text x="160" y="132.5" font-size="8" text-anchor="middle" fill="white">P2PRegistry</text>

  <polygon id="subtype-0" points="117,36 120,41 114,41" fill="none" stroke-width="1" stroke="#8181ff" />
  <path d="M 117 41 V 45 H 125" fill="none" stroke-width="1" stroke="#8181ff" />

  <polygon id="subtype-0" points="117,76 120,81 114,81" fill="none" stroke-width="1" stroke="#8181ff" />
  <path d="M 117 81 V 130 H 125 M 117 85 H 125 M 117 98 H 125 M 117 115 H 125" fill="none" stroke-width="1" stroke="#8181ff" />

  <polygon id="subtype-0" points="7,61 10,66 4,66" fill="none" stroke-width="1" stroke="#8181ff" />
  <path d="M 7 66 V 100 H 15 M 7 70 H 15 M 7 85 H 15" fill="none" stroke-width="1" stroke="#8181ff" />

  <circle cx="123" cy="103" r="2" fill="#8181ff" />
  <line x1="85" y1="103" x2="123" y2="103" stroke-width="1" stroke="#8181ff" />

  <circle cx="42.5" cy="48" r="2" fill="#bd582c" />
  <line x1="42.5" y1="10" x2="42.5" y2="48" stroke-width="1" stroke="#bd582c" />

  <circle cx="108" cy="67" r="2" fill="#bd582c" />
  <line x1="83" y1="5" x2="108" y2="67" stroke-width="1" stroke="#bd582c" />

  <circle cx="108" cy="30" r="2" fill="#bd582c" />
  <line x1="82" y1="53" x2="108" y2="30" stroke-width="1" stroke="#bd582c" />

  <circle cx="108" cy="73" r="2" fill="#bd582c" />
  <line x1="82" y1="58" x2="108" y2="73" stroke-width="1" stroke="#bd582c" />

  <circle cx="122.5" cy="63" r="2" fill="#bd582c" />
  <line x1="122.5" y1="35" x2="122.5" y2="63" stroke-width="1" stroke="#bd582c" />
</svg>
