<svg xmlns="http://www.w3.org/2000/svg" xmlns:xlink="http://www.w3.org/1999/xlink" viewBox="0 0 345 362" version="1.1">
  <defs>
    <linearGradient id="linearGradient">
      <stop offset="0" stop-color="#008000" />
      <stop offset="1" stop-color="#004500" />
    </linearGradient>
    <radialGradient
      id="radialGradient"
      xlink:href="#linearGradient"
      gradientUnits="userSpaceOnUse"
      cx="80" cy="200" fx="80" fy="200" r="125" />
  </defs>
  <path
    d="M 315.68263,0.34986485 C 276.01673,0.98235883 237.12614,20.884065 213.87373,53.109043 167.29411,105.27499 129.69976,164.63707 94.374042,224.77174 89.386899,210.98365 81.994378,194.72188 66.417011,190.76784 48.234793,186.62749 30.493469,196.88682 16.7215,207.76303 3.863543,218.85314 -3.14625,237.24675 2.004901,253.8401 c 5.79981,27.49606 17.209984,53.39773 27.993729,79.1963 5.974856,13.08124 16.757879,25.7817 31.904709,27.42675 19.525149,3.27126 41.973501,0.30398 56.021481,-14.95117 11.53524,-11.41473 16.00848,-27.49572 24.905,-40.70274 44.47956,-76.15492 95.19996,-148.63686 148.9891,-218.469703 15.67766,-20.133119 53.36321,-67.238516 52.87344,-71.411795 -0.48977,-4.17328 -6.27819,-7.3721402 -16.59023,-12.2672602 -3.14518,-1.64875 -8.83722,-2.40038395 -12.4195,-2.31061695 z"
    fill="url(#radialGradient)" />
</svg>
