<svg xmlns="http://www.w3.org/2000/svg" xmlns:xlink="http://www.w3.org/1999/xlink" viewBox="0 0 522 621" version="1.1">
  <defs>
    <linearGradient id="linearGradient">
      <stop offset="0" stop-color="#ff0000" />
      <stop offset="1" stop-color="#c70000" />
    </linearGradient>
    <radialGradient
      id="radialGradient"
      xlink:href="#linearGradient"
      gradientUnits="userSpaceOnUse"
      cx="260" cy="300" fx="260" fy="300" r="250" />
  </defs>
  <path
    d="M 163.81423,0.30654404 C 138.13047,1.0801347 115.08972,24.960848 117.2029,50.976466 c -1.26052,39.603482 12.65452,77.505114 22.29161,115.278614 12.10185,40.94705 25.69908,82.57365 26.08144,125.50067 -5.22767,11.9758 -16.7799,19.40827 -23.70658,30.27201 -47.952383,57.3419 -100.812109,111.49445 -139.1352146,176.11862 -5.1858489,11.12636 -1.3557507,24.13493 6.1514698,33.19555 18.9204978,29.61975 37.7756448,59.80537 62.3739208,85.12671 5.791236,6.26142 15.347783,5.04157 21.740234,0.42774 9.72024,-6.82635 17.12155,-16.36743 25.93885,-24.24894 39.88154,-40.85159 74.74684,-86.17432 112.13732,-129.23934 38.06886,38.80762 73.24272,80.58441 113.24609,117.48047 9.0341,6.99454 24.12514,10.01129 32.44141,0.35546 8.9497,-10.11779 12.62527,-23.56018 20.21094,-34.5957 10.19598,-18.58772 23.48009,-36.26816 28.62695,-57.09961 0.40409,-21.15621 -16.16202,-36.81279 -25.54142,-54.25127 -18.04336,-30.07055 -34.53265,-62.0379 -41.02303,-96.69209 2.67081,-20.19852 15.35936,-36.81709 23.83984,-54.84375 30.06495,-53.4415 64.28628,-104.96847 104.44336,-151.1875 7.24666,-7.73339 16.72965,-12.88144 25.13672,-18.92578 12.8402,-13.31813 10.64553,-34.579708 3.05805,-50.003905 C 506.04424,43.21625 488.42148,24.443417 465.6072,20.021387 443.7076,17.275033 424.27486,30.987761 407.47048,43.18545 368.68847,71.983483 336.92268,108.83153 301.69704,141.537 277.63457,98.544657 256.18237,51.582084 216.94428,19.932409 201.92742,8.0550532 183.34065,-0.65603896 163.81423,0.30654404 Z"
    fill="url(#radialGradient)" />
</svg>
