<svg width="128" height="128" xmlns="http://www.w3.org/2000/svg" version="1.1">
  <linearGradient id="gradient" gradientUnits="userSpaceOnUse" x1="64" x2="64" y1="20" y2="108">
    <stop offset="0.5" stop-color="#FEE133"/>
    <stop offset="0.6118" stop-color="#FEDE32"/>
    <stop offset="0.7076" stop-color="#FCD32F"/>
    <stop offset="0.7975" stop-color="#FAC12B"/>
    <stop offset="0.8834" stop-color="#F7A924"/>
    <stop offset="0.9" stop-color="#F6A323"/>
  </linearGradient>
  <path d="M64,119.89C36.07,119.89,6,102.4,6,64S36.07,8.11,64,8.11c15.48,0,29.81,5.12,40.36,14.43 C115.9,32.72,122,47.06,122,64c0,16.86-6.1,31.17-17.64,41.39C93.78,114.74,79.45,119.89,64,119.89z" fill="url(#gradient)" />
  <path d="M64,10.11L64,10.11c14.99,0,28.86,4.95,39.03,13.93C114.13,33.83,120,47.65,120,64 c0,16.27-5.87,30.07-16.97,39.89c-10.21,9.03-24.07,14-39.03,14c-15.04,0-28.9-4.91-39.04-13.82C13.86,94.32,8,80.46,8,64 c0-16.54,5.86-30.42,16.96-40.15C35.07,14.99,48.93,10.11,64,10.11 M64,6.11L64,6.11L64,6.11L64,6.11C32.85,6.11,4,26.11,4,64 c0,37.68,28.85,57.89,60,57.89h0h0h0c31.15,0,60-20.73,60-57.89C124,26.63,95.15,6.11,64,6.11L64,6.11z" fill="#EB8F00" />
  <path d="M64,72.77c10.75,0,18.41,5.58,20.72,9.09c0.89,1.36,1.07,2.83,0.47,3.94 c-0.45,0.84-1.27,1.32-2.25,1.32c-0.33,0-0.67-0.06-1.01-0.16c-5.42-1.7-11.62-2.59-17.96-2.59c-6.29,0-12.48,0.9-17.88,2.59 c-0.35,0.11-0.69,0.16-1.02,0.16c-0.98,0-1.8-0.48-2.25-1.32c-0.6-1.11-0.42-2.58,0.47-3.94C45.59,78.34,53.25,72.77,64,72.77z" fill="#242424" />
  <path d="M82.77,29.36L82.77,29.36c4.19,0,8,3.54,8,9.42s-3.81,9.42-8,9.42l0,0c-4.19,0-8-3.54-8-9.42 S78.58,29.36,82.77,29.36z" fill="#242424" />
  <path d="M45.23,29.36L45.23,29.36c-4.19,0-8,3.54-8,9.42s3.81,9.42,8,9.42l0,0c4.19,0,8-3.54,8-9.42 S49.42,29.36,45.23,29.36z" fill="#242424" />
</svg>