<svg xmlns="http://www.w3.org/2000/svg" xmlns:xlink="http://www.w3.org/1999/xlink" viewBox="0 0 190 120" width="570" height="360" version="1.1">
  <line id="line-0" x1="50" y1="10" x2="10" y2="50" stroke-width="2" stroke="#7070ff" />
  <line id="line-1" x1="50" y1="10" x2="60" y2="70" stroke-width="2" stroke="#7070ff" />
  <line id="line-2" x1="50" y1="10" x2="90" y2="35" stroke-width="2" stroke="#7070ff" />
  <line id="line-3" x1="10" y1="50" x2="60" y2="70" stroke-width="2" stroke="#7070ff" />
  <line id="line-4" x1="90" y1="35" x2="140" y2="60" stroke-width="2" stroke="#7070ff" />
  <line id="line-5" x1="90" y1="35" x2="180" y2="20" stroke-width="2" stroke="#7070ff" />
  <line id="line-6" x1="60" y1="70" x2="140" y2="60" stroke-width="2" stroke="#7070ff" />
  <line id="line-7" x1="110" y1="110" x2="60" y2="70" stroke-width="2" stroke="#7070ff" />
  <line id="line-8" x1="110" y1="110" x2="140" y2="60" stroke-width="2" stroke="#7070ff" />
  <line id="line-9" x1="20" y1="100" x2="60" y2="70" stroke-width="2" stroke="#7070ff" />
  <circle id="node-0" transform="translate(50, 10)" r="10" fill="#7070ff" />
  <circle id="node-1" transform="translate(10, 50)" r="10" fill="#7070ff" />
  <circle id="node-2" transform="translate(60, 70)" r="10" fill="#7070ff" />
  <circle id="node-3" transform="translate(90, 35)" r="10" fill="#7070ff" />
  <circle id="node-4" transform="translate(140, 60)" r="10" fill="#7070ff" />
  <circle id="node-5" transform="translate(180, 20)" r="10" fill="#7070ff" />
  <circle id="node-6" transform="translate(20, 100)" r="10" fill="#7070ff" />
  <circle id="node-7" transform="translate(110, 110)" r="10" fill="#7070ff" />
  <circle id="node-leader" transform="translate(60, 70)" r="12" fill="#e48312" />
</svg>
